STARTFONT 2.1
FONT -FontForge-DSEG7 Classic-Bold-R-Normal--99-950-75-75-P-757-ISO10646-1
SIZE 95 75 75
FONTBOUNDINGBOX 77 99 -6 0
COMMENT "Generated by fontforge, http://fontforge.sourceforge.net"
COMMENT "Created by Keshikan"
COMMENT "with FontForge 2.0 (http://fontforge.sf.net)"
STARTPROPERTIES 40
FOUNDRY "FontForge"
FAMILY_NAME "DSEG7 Classic"
WEIGHT_NAME "Bold"
SLANT "R"
SETWIDTH_NAME "Normal"
ADD_STYLE_NAME ""
PIXEL_SIZE 99
POINT_SIZE 950
RESOLUTION_X 75
RESOLUTION_Y 75
SPACING "P"
AVERAGE_WIDTH 757
CHARSET_REGISTRY "ISO10646"
CHARSET_ENCODING "1"
FONTNAME_REGISTRY ""
CHARSET_COLLECTIONS "ISO10646-1"
FONT_NAME "DSEG7Classic-Bold"
FACE_NAME "DSEG7 Classic-Bold"
COPYRIGHT "Created by Keshikan"
FONT_VERSION "0.46"
FONT_ASCENT 99
FONT_DESCENT 0
UNDERLINE_POSITION -15
UNDERLINE_THICKNESS 5
X_HEIGHT 93
CAP_HEIGHT 93
RAW_ASCENT 1000
RAW_DESCENT 0
NORM_SPACE 20
RELATIVE_WEIGHT 70
RELATIVE_SETWIDTH 50
SUPERSCRIPT_X 0
SUPERSCRIPT_Y 47
SUPERSCRIPT_SIZE 69
SUBSCRIPT_X 0
SUBSCRIPT_Y 13
SUBSCRIPT_SIZE 69
FIGURE_WIDTH 81
AVG_LOWERCASE_WIDTH 810
AVG_UPPERCASE_WIDTH 810
ENDPROPERTIES
CHARS 72
STARTCHAR space
ENCODING 32
SWIDTH 200 0
DWIDTH 20 0
BBX 1 1 0 0
BITMAP
00
ENDCHAR
STARTCHAR exclam
ENCODING 33
SWIDTH 816 0
DWIDTH 81 0
BBX 1 1 0 0
BITMAP
00
ENDCHAR
STARTCHAR hyphen
ENCODING 45
SWIDTH 816 0
DWIDTH 81 0
BBX 46 13 17 43
BITMAP
03FFFFFFFF00
07FFFFFFFF80
0FFFFFFFFFC0
1FFFFFFFFFE0
3FFFFFFFFFF0
7FFFFFFFFFF8
FFFFFFFFFFFC
7FFFFFFFFFF8
3FFFFFFFFFF0
1FFFFFFFFFE0
0FFFFFFFFFC0
07FFFFFFFF80
03FFFFFFFF00
ENDCHAR
STARTCHAR period
ENCODING 46
SWIDTH 0 0
DWIDTH 0 0
BBX 12 12 -6 0
BITMAP
1F80
3FC0
7FE0
FFF0
FFF0
FFF0
FFF0
FFF0
FFF0
7FE0
3FC0
0F00
ENDCHAR
STARTCHAR zero
ENCODING 48
SWIDTH 816 0
DWIDTH 81 0
BBX 61 99 10 0
BITMAP
01FFFFFFFFFFFC00
03FFFFFFFFFFFE00
07FFFFFFFFFFFF00
07FFFFFFFFFFFF00
03FFFFFFFFFFFE00
31FFFFFFFFFFFC60
78FFFFFFFFFFF8F0
FC7FFFFFFFFFF1F8
FE3FFFFFFFFFE3F8
FF1FFFFFFFFFC7F8
FF8FFFFFFFFF8FF8
FFC7FFFFFFFF1FF8
FFE0000000003FF8
FFF0000000007FF8
FFF0000000007FF8
FFF0000000007FF8
FFF0000000007FF8
FFF0000000007FF8
FFF0000000007FF8
FFF0000000007FF8
FFF0000000007FF8
FFF0000000007FF8
FFF0000000007FF8
FFF0000000007FF8
FFF0000000007FF8
FFF0000000007FF8
FFF0000000007FF8
FFF0000000007FF8
FFF0000000007FF8
FFF0000000007FF8
FFF0000000007FF8
FFF0000000007FF8
FFF0000000007FF8
FFF0000000007FF8
FFF0000000007FF8
FFF0000000007FF8
FFF0000000007FF8
FFF0000000007FF8
FFF0000000007FF8
FFF0000000007FF8
FFF0000000007FF8
FFF0000000007FF8
FFF0000000007FF8
FFE0000000003FF8
FFC0000000001FF8
FF80000000000FF8
FE000000000007F8
FC000000000003F8
FC000000000001F8
0000000000000000
FC00000000000000
FC000000000003F8
FE000000000007F8
FF80000000000FF8
FFC0000000001FF8
FFE0000000003FF8
FFF0000000007FF8
FFF0000000007FF8
FFF0000000007FF8
FFF0000000007FF8
FFF0000000007FF8
FFF0000000007FF8
FFF0000000007FF8
FFF0000000007FF8
FFF0000000007FF8
FFF0000000007FF8
FFF0000000007FF8
FFF0000000007FF8
FFF0000000007FF8
FFF0000000007FF8
FFF0000000007FF8
FFF0000000007FF8
FFF0000000007FF8
FFF0000000007FF8
FFF0000000007FF8
FFF0000000007FF8
FFF0000000007FF8
FFF0000000007FF8
FFF0000000007FF8
FFF0000000007FF8
FFF0000000007FF8
FFF0000000007FF8
FFF0000000007FF8
FFF0000000007FF8
FFF0000000007FF8
FFF0000000007FF8
FFE0000000003FF8
FFC7FFFFFFFF1FF8
FF8FFFFFFFFF8FF8
FF1FFFFFFFFFC7F8
FE3FFFFFFFFFE3F8
FC7FFFFFFFFFF1F8
78FFFFFFFFFFF8F0
31FFFFFFFFFFFC60
03FFFFFFFFFFFE00
07FFFFFFFFFFFF00
07FFFFFFFFFFFF00
03FFFFFFFFFFFE00
01FFFFFFFFFFFC00
ENDCHAR
STARTCHAR one
ENCODING 49
SWIDTH 816 0
DWIDTH 81 0
BBX 12 89 59 5
BITMAP
00C0
01E0
03F0
07F0
0FF0
1FF0
3FF0
7FF0
FFF0
FFF0
FFF0
FFF0
FFF0
FFF0
FFF0
FFF0
FFF0
FFF0
FFF0
FFF0
FFF0
FFF0
FFF0
FFF0
FFF0
FFF0
FFF0
FFF0
FFF0
FFF0
FFF0
FFF0
FFF0
FFF0
FFF0
FFF0
FFF0
FFF0
7FF0
3FF0
1FF0
0FF0
07F0
03F0
0000
0000
07F0
0FF0
1FF0
3FF0
7FF0
FFF0
FFF0
FFF0
FFF0
FFF0
FFF0
FFF0
FFF0
FFF0
FFF0
FFF0
FFF0
FFF0
FFF0
FFF0
FFF0
FFF0
FFF0
FFF0
FFF0
FFF0
FFF0
FFF0
FFF0
FFF0
FFF0
FFF0
FFF0
FFF0
FFF0
7FF0
3FF0
1FF0
0FF0
07F0
03F0
01E0
00C0
ENDCHAR
STARTCHAR two
ENCODING 50
SWIDTH 816 0
DWIDTH 81 0
BBX 61 99 10 0
BITMAP
01FFFFFFFFFFFC00
03FFFFFFFFFFFE00
07FFFFFFFFFFFF00
07FFFFFFFFFFFF00
03FFFFFFFFFFFE00
01FFFFFFFFFFFC60
00FFFFFFFFFFF8F0
007FFFFFFFFFF1F8
003FFFFFFFFFE3F8
001FFFFFFFFFC7F8
000FFFFFFFFF8FF8
0007FFFFFFFF1FF8
0000000000003FF8
0000000000007FF8
0000000000007FF8
0000000000007FF8
0000000000007FF8
0000000000007FF8
0000000000007FF8
0000000000007FF8
0000000000007FF8
0000000000007FF8
0000000000007FF8
0000000000007FF8
0000000000007FF8
0000000000007FF8
0000000000007FF8
0000000000007FF8
0000000000007FF8
0000000000007FF8
0000000000007FF8
0000000000007FF8
0000000000007FF8
0000000000007FF8
0000000000007FF8
0000000000007FF8
0000000000007FF8
0000000000007FF8
0000000000007FF8
0000000000007FF8
0000000000007FF8
0000000000007FF8
0000000000007FF8
0007FFFFFFFE3FF8
000FFFFFFFFF1FF8
001FFFFFFFFF8FF8
003FFFFFFFFFC7F8
007FFFFFFFFFE3F8
00FFFFFFFFFFF1F8
01FFFFFFFFFFF800
FCFFFFFFFFFFF000
FC7FFFFFFFFFE000
FE3FFFFFFFFFC000
FF9FFFFFFFFF8000
FFCFFFFFFFFF0000
FFE7FFFFFFFE0000
FFF0000000000000
FFF0000000000000
FFF0000000000000
FFF0000000000000
FFF0000000000000
FFF0000000000000
FFF0000000000000
FFF0000000000000
FFF0000000000000
FFF0000000000000
FFF0000000000000
FFF0000000000000
FFF0000000000000
FFF0000000000000
FFF0000000000000
FFF0000000000000
FFF0000000000000
FFF0000000000000
FFF0000000000000
FFF0000000000000
FFF0000000000000
FFF0000000000000
FFF0000000000000
FFF0000000000000
FFF0000000000000
FFF0000000000000
FFF0000000000000
FFF0000000000000
FFF0000000000000
FFF0000000000000
FFE0000000000000
FFC7FFFFFFFF0000
FF8FFFFFFFFF8000
FF1FFFFFFFFFC000
FE3FFFFFFFFFE000
FC7FFFFFFFFFF000
78FFFFFFFFFFF800
31FFFFFFFFFFFC00
03FFFFFFFFFFFE00
07FFFFFFFFFFFF00
07FFFFFFFFFFFF00
03FFFFFFFFFFFE00
01FFFFFFFFFFFC00
ENDCHAR
STARTCHAR three
ENCODING 51
SWIDTH 816 0
DWIDTH 81 0
BBX 56 99 15 0
BITMAP
3FFFFFFFFFFF80
7FFFFFFFFFFFC0
FFFFFFFFFFFFE0
FFFFFFFFFFFFE0
7FFFFFFFFFFFC0
3FFFFFFFFFFF8C
1FFFFFFFFFFF1E
0FFFFFFFFFFE3F
07FFFFFFFFFC7F
03FFFFFFFFF8FF
01FFFFFFFFF1FF
00FFFFFFFFE3FF
000000000007FF
00000000000FFF
00000000000FFF
00000000000FFF
00000000000FFF
00000000000FFF
00000000000FFF
00000000000FFF
00000000000FFF
00000000000FFF
00000000000FFF
00000000000FFF
00000000000FFF
00000000000FFF
00000000000FFF
00000000000FFF
00000000000FFF
00000000000FFF
00000000000FFF
00000000000FFF
00000000000FFF
00000000000FFF
00000000000FFF
00000000000FFF
00000000000FFF
00000000000FFF
00000000000FFF
00000000000FFF
00000000000FFF
00000000000FFF
00000000000FFF
00FFFFFFFFC7FF
01FFFFFFFFE3FF
03FFFFFFFFF1FF
07FFFFFFFFF8FF
0FFFFFFFFFFC7F
1FFFFFFFFFFE3F
3FFFFFFFFFFF00
1FFFFFFFFFFE00
0FFFFFFFFFFC7F
07FFFFFFFFF8FF
03FFFFFFFFF1FF
01FFFFFFFFE3FF
00FFFFFFFFC7FF
00000000000FFF
00000000000FFF
00000000000FFF
00000000000FFF
00000000000FFF
00000000000FFF
00000000000FFF
00000000000FFF
00000000000FFF
00000000000FFF
00000000000FFF
00000000000FFF
00000000000FFF
00000000000FFF
00000000000FFF
00000000000FFF
00000000000FFF
00000000000FFF
00000000000FFF
00000000000FFF
00000000000FFF
00000000000FFF
00000000000FFF
00000000000FFF
00000000000FFF
00000000000FFF
00000000000FFF
00000000000FFF
00000000000FFF
00000000000FFF
000000000007FF
00FFFFFFFFE3FF
01FFFFFFFFF1FF
03FFFFFFFFF8FF
07FFFFFFFFFC7F
0FFFFFFFFFFE3F
1FFFFFFFFFFF1E
3FFFFFFFFFFF8C
7FFFFFFFFFFFC0
FFFFFFFFFFFFE0
FFFFFFFFFFFFE0
7FFFFFFFFFFFC0
3FFFFFFFFFFF80
ENDCHAR
STARTCHAR four
ENCODING 52
SWIDTH 816 0
DWIDTH 81 0
BBX 61 89 10 5
BITMAP
3000000000000060
78000000000000F0
FC000000000001F8
FE000000000003F8
FF000000000007F8
FF80000000000FF8
FFC0000000001FF8
FFE0000000003FF8
FFF0000000007FF8
FFF0000000007FF8
FFF0000000007FF8
FFF0000000007FF8
FFF0000000007FF8
FFF0000000007FF8
FFF0000000007FF8
FFF0000000007FF8
FFF0000000007FF8
FFF0000000007FF8
FFF0000000007FF8
FFF0000000007FF8
FFF0000000007FF8
FFF0000000007FF8
FFF0000000007FF8
FFF0000000007FF8
FFF0000000007FF8
FFF0000000007FF8
FFF0000000007FF8
FFF0000000007FF8
FFF0000000007FF8
FFF0000000007FF8
FFF0000000007FF8
FFF0000000007FF8
FFF0000000007FF8
FFF0000000007FF8
FFF0000000007FF8
FFF0000000007FF8
FFF0000000007FF8
FFF0000000007FF8
FFE7FFFFFFFE3FF8
FFCFFFFFFFFF1FF8
FF9FFFFFFFFF8FF8
FE3FFFFFFFFFC7F8
FC7FFFFFFFFFE3F8
FCFFFFFFFFFFF1F8
01FFFFFFFFFFF800
00FFFFFFFFFFF000
007FFFFFFFFFE3F8
003FFFFFFFFFC7F8
001FFFFFFFFF8FF8
000FFFFFFFFF1FF8
0007FFFFFFFE3FF8
0000000000007FF8
0000000000007FF8
0000000000007FF8
0000000000007FF8
0000000000007FF8
0000000000007FF8
0000000000007FF8
0000000000007FF8
0000000000007FF8
0000000000007FF8
0000000000007FF8
0000000000007FF8
0000000000007FF8
0000000000007FF8
0000000000007FF8
0000000000007FF8
0000000000007FF8
0000000000007FF8
0000000000007FF8
0000000000007FF8
0000000000007FF8
0000000000007FF8
0000000000007FF8
0000000000007FF8
0000000000007FF8
0000000000007FF8
0000000000007FF8
0000000000007FF8
0000000000007FF8
0000000000007FF8
0000000000003FF8
0000000000001FF8
0000000000000FF8
00000000000007F8
00000000000003F8
00000000000001F8
00000000000000F0
0000000000000060
ENDCHAR
STARTCHAR five
ENCODING 53
SWIDTH 816 0
DWIDTH 81 0
BBX 61 99 10 0
BITMAP
01FFFFFFFFFFFC00
03FFFFFFFFFFFE00
07FFFFFFFFFFFF00
07FFFFFFFFFFFF00
03FFFFFFFFFFFE00
31FFFFFFFFFFFC00
78FFFFFFFFFFF800
FC7FFFFFFFFFF000
FE3FFFFFFFFFE000
FF1FFFFFFFFFC000
FF8FFFFFFFFF8000
FFC7FFFFFFFF0000
FFE0000000000000
FFF0000000000000
FFF0000000000000
FFF0000000000000
FFF0000000000000
FFF0000000000000
FFF0000000000000
FFF0000000000000
FFF0000000000000
FFF0000000000000
FFF0000000000000
FFF0000000000000
FFF0000000000000
FFF0000000000000
FFF0000000000000
FFF0000000000000
FFF0000000000000
FFF0000000000000
FFF0000000000000
FFF0000000000000
FFF0000000000000
FFF0000000000000
FFF0000000000000
FFF0000000000000
FFF0000000000000
FFF0000000000000
FFF0000000000000
FFF0000000000000
FFF0000000000000
FFF0000000000000
FFF0000000000000
FFE7FFFFFFFE0000
FFCFFFFFFFFF0000
FF9FFFFFFFFF8000
FE3FFFFFFFFFC000
FC7FFFFFFFFFE000
FCFFFFFFFFFFF000
01FFFFFFFFFFF800
00FFFFFFFFFFF000
007FFFFFFFFFE3F8
003FFFFFFFFFC7F8
001FFFFFFFFF8FF8
000FFFFFFFFF1FF8
0007FFFFFFFE3FF8
0000000000007FF8
0000000000007FF8
0000000000007FF8
0000000000007FF8
0000000000007FF8
0000000000007FF8
0000000000007FF8
0000000000007FF8
0000000000007FF8
0000000000007FF8
0000000000007FF8
0000000000007FF8
0000000000007FF8
0000000000007FF8
0000000000007FF8
0000000000007FF8
0000000000007FF8
0000000000007FF8
0000000000007FF8
0000000000007FF8
0000000000007FF8
0000000000007FF8
0000000000007FF8
0000000000007FF8
0000000000007FF8
0000000000007FF8
0000000000007FF8
0000000000007FF8
0000000000007FF8
0000000000007FF8
0000000000003FF8
0007FFFFFFFF1FF8
000FFFFFFFFF8FF8
001FFFFFFFFFC7F8
003FFFFFFFFFE3F8
007FFFFFFFFFF1F8
00FFFFFFFFFFF8F0
01FFFFFFFFFFFC60
03FFFFFFFFFFFE00
07FFFFFFFFFFFF00
07FFFFFFFFFFFF00
03FFFFFFFFFFFE00
01FFFFFFFFFFFC00
ENDCHAR
STARTCHAR six
ENCODING 54
SWIDTH 816 0
DWIDTH 81 0
BBX 61 99 10 0
BITMAP
01FFFFFFFFFFFC00
03FFFFFFFFFFFE00
07FFFFFFFFFFFF00
07FFFFFFFFFFFF00
03FFFFFFFFFFFE00
31FFFFFFFFFFFC00
78FFFFFFFFFFF800
FC7FFFFFFFFFF000
FE3FFFFFFFFFE000
FF1FFFFFFFFFC000
FF8FFFFFFFFF8000
FFC7FFFFFFFF0000
FFE0000000000000
FFF0000000000000
FFF0000000000000
FFF0000000000000
FFF0000000000000
FFF0000000000000
FFF0000000000000
FFF0000000000000
FFF0000000000000
FFF0000000000000
FFF0000000000000
FFF0000000000000
FFF0000000000000
FFF0000000000000
FFF0000000000000
FFF0000000000000
FFF0000000000000
FFF0000000000000
FFF0000000000000
FFF0000000000000
FFF0000000000000
FFF0000000000000
FFF0000000000000
FFF0000000000000
FFF0000000000000
FFF0000000000000
FFF0000000000000
FFF0000000000000
FFF0000000000000
FFF0000000000000
FFF0000000000000
FFE7FFFFFFFE0000
FFCFFFFFFFFF0000
FF9FFFFFFFFF8000
FE3FFFFFFFFFC000
FC7FFFFFFFFFE000
FCFFFFFFFFFFF000
01FFFFFFFFFFF800
FCFFFFFFFFFFF000
FC7FFFFFFFFFE3F8
FE3FFFFFFFFFC7F8
FF9FFFFFFFFF8FF8
FFCFFFFFFFFF1FF8
FFE7FFFFFFFE3FF8
FFF0000000007FF8
FFF0000000007FF8
FFF0000000007FF8
FFF0000000007FF8
FFF0000000007FF8
FFF0000000007FF8
FFF0000000007FF8
FFF0000000007FF8
FFF0000000007FF8
FFF0000000007FF8
FFF0000000007FF8
FFF0000000007FF8
FFF0000000007FF8
FFF0000000007FF8
FFF0000000007FF8
FFF0000000007FF8
FFF0000000007FF8
FFF0000000007FF8
FFF0000000007FF8
FFF0000000007FF8
FFF0000000007FF8
FFF0000000007FF8
FFF0000000007FF8
FFF0000000007FF8
FFF0000000007FF8
FFF0000000007FF8
FFF0000000007FF8
FFF0000000007FF8
FFF0000000007FF8
FFF0000000007FF8
FFE0000000003FF8
FFC7FFFFFFFF1FF8
FF8FFFFFFFFF8FF8
FF1FFFFFFFFFC7F8
FE3FFFFFFFFFE3F8
FC7FFFFFFFFFF1F8
78FFFFFFFFFFF8F0
31FFFFFFFFFFFC60
03FFFFFFFFFFFE00
07FFFFFFFFFFFF00
07FFFFFFFFFFFF00
03FFFFFFFFFFFE00
01FFFFFFFFFFFC00
ENDCHAR
STARTCHAR seven
ENCODING 55
SWIDTH 816 0
DWIDTH 81 0
BBX 61 94 10 5
BITMAP
01FFFFFFFFFFFC00
03FFFFFFFFFFFE00
07FFFFFFFFFFFF00
07FFFFFFFFFFFF00
03FFFFFFFFFFFE00
31FFFFFFFFFFFC60
78FFFFFFFFFFF8F0
FC7FFFFFFFFFF1F8
FE3FFFFFFFFFE3F8
FF1FFFFFFFFFC7F8
FF8FFFFFFFFF8FF8
FFC7FFFFFFFF1FF8
FFE0000000003FF8
FFF0000000007FF8
FFF0000000007FF8
FFF0000000007FF8
FFF0000000007FF8
FFF0000000007FF8
FFF0000000007FF8
FFF0000000007FF8
FFF0000000007FF8
FFF0000000007FF8
FFF0000000007FF8
FFF0000000007FF8
FFF0000000007FF8
FFF0000000007FF8
FFF0000000007FF8
FFF0000000007FF8
FFF0000000007FF8
FFF0000000007FF8
FFF0000000007FF8
FFF0000000007FF8
FFF0000000007FF8
FFF0000000007FF8
FFF0000000007FF8
FFF0000000007FF8
FFF0000000007FF8
FFF0000000007FF8
FFF0000000007FF8
FFF0000000007FF8
FFF0000000007FF8
FFF0000000007FF8
FFF0000000007FF8
FFE0000000003FF8
FFC0000000001FF8
FF80000000000FF8
FE000000000007F8
FC000000000003F8
FC000000000001F8
0000000000000000
0000000000000000
00000000000003F8
00000000000007F8
0000000000000FF8
0000000000001FF8
0000000000003FF8
0000000000007FF8
0000000000007FF8
0000000000007FF8
0000000000007FF8
0000000000007FF8
0000000000007FF8
0000000000007FF8
0000000000007FF8
0000000000007FF8
0000000000007FF8
0000000000007FF8
0000000000007FF8
0000000000007FF8
0000000000007FF8
0000000000007FF8
0000000000007FF8
0000000000007FF8
0000000000007FF8
0000000000007FF8
0000000000007FF8
0000000000007FF8
0000000000007FF8
0000000000007FF8
0000000000007FF8
0000000000007FF8
0000000000007FF8
0000000000007FF8
0000000000007FF8
0000000000007FF8
0000000000007FF8
0000000000003FF8
0000000000001FF8
0000000000000FF8
00000000000007F8
00000000000003F8
00000000000001F8
00000000000000F0
0000000000000060
ENDCHAR
STARTCHAR eight
ENCODING 56
SWIDTH 816 0
DWIDTH 81 0
BBX 61 99 10 0
BITMAP
01FFFFFFFFFFFC00
03FFFFFFFFFFFE00
07FFFFFFFFFFFF00
07FFFFFFFFFFFF00
03FFFFFFFFFFFE00
31FFFFFFFFFFFC60
78FFFFFFFFFFF8F0
FC7FFFFFFFFFF1F8
FE3FFFFFFFFFE3F8
FF1FFFFFFFFFC7F8
FF8FFFFFFFFF8FF8
FFC7FFFFFFFF1FF8
FFE0000000003FF8
FFF0000000007FF8
FFF0000000007FF8
FFF0000000007FF8
FFF0000000007FF8
FFF0000000007FF8
FFF0000000007FF8
FFF0000000007FF8
FFF0000000007FF8
FFF0000000007FF8
FFF0000000007FF8
FFF0000000007FF8
FFF0000000007FF8
FFF0000000007FF8
FFF0000000007FF8
FFF0000000007FF8
FFF0000000007FF8
FFF0000000007FF8
FFF0000000007FF8
FFF0000000007FF8
FFF0000000007FF8
FFF0000000007FF8
FFF0000000007FF8
FFF0000000007FF8
FFF0000000007FF8
FFF0000000007FF8
FFF0000000007FF8
FFF0000000007FF8
FFF0000000007FF8
FFF0000000007FF8
FFF0000000007FF8
FFE7FFFFFFFE3FF8
FFCFFFFFFFFF1FF8
FF9FFFFFFFFF8FF8
FE3FFFFFFFFFC7F8
FC7FFFFFFFFFE3F8
FCFFFFFFFFFFF1F8
01FFFFFFFFFFF800
FCFFFFFFFFFFF000
FC7FFFFFFFFFE3F8
FE3FFFFFFFFFC7F8
FF9FFFFFFFFF8FF8
FFCFFFFFFFFF1FF8
FFE7FFFFFFFE3FF8
FFF0000000007FF8
FFF0000000007FF8
FFF0000000007FF8
FFF0000000007FF8
FFF0000000007FF8
FFF0000000007FF8
FFF0000000007FF8
FFF0000000007FF8
FFF0000000007FF8
FFF0000000007FF8
FFF0000000007FF8
FFF0000000007FF8
FFF0000000007FF8
FFF0000000007FF8
FFF0000000007FF8
FFF0000000007FF8
FFF0000000007FF8
FFF0000000007FF8
FFF0000000007FF8
FFF0000000007FF8
FFF0000000007FF8
FFF0000000007FF8
FFF0000000007FF8
FFF0000000007FF8
FFF0000000007FF8
FFF0000000007FF8
FFF0000000007FF8
FFF0000000007FF8
FFF0000000007FF8
FFF0000000007FF8
FFE0000000003FF8
FFC7FFFFFFFF1FF8
FF8FFFFFFFFF8FF8
FF1FFFFFFFFFC7F8
FE3FFFFFFFFFE3F8
FC7FFFFFFFFFF1F8
78FFFFFFFFFFF8F0
31FFFFFFFFFFFC60
03FFFFFFFFFFFE00
07FFFFFFFFFFFF00
07FFFFFFFFFFFF00
03FFFFFFFFFFFE00
01FFFFFFFFFFFC00
ENDCHAR
STARTCHAR nine
ENCODING 57
SWIDTH 816 0
DWIDTH 81 0
BBX 61 99 10 0
BITMAP
01FFFFFFFFFFFC00
03FFFFFFFFFFFE00
07FFFFFFFFFFFF00
07FFFFFFFFFFFF00
03FFFFFFFFFFFE00
31FFFFFFFFFFFC60
78FFFFFFFFFFF8F0
FC7FFFFFFFFFF1F8
FE3FFFFFFFFFE3F8
FF1FFFFFFFFFC7F8
FF8FFFFFFFFF8FF8
FFC7FFFFFFFF1FF8
FFE0000000003FF8
FFF0000000007FF8
FFF0000000007FF8
FFF0000000007FF8
FFF0000000007FF8
FFF0000000007FF8
FFF0000000007FF8
FFF0000000007FF8
FFF0000000007FF8
FFF0000000007FF8
FFF0000000007FF8
FFF0000000007FF8
FFF0000000007FF8
FFF0000000007FF8
FFF0000000007FF8
FFF0000000007FF8
FFF0000000007FF8
FFF0000000007FF8
FFF0000000007FF8
FFF0000000007FF8
FFF0000000007FF8
FFF0000000007FF8
FFF0000000007FF8
FFF0000000007FF8
FFF0000000007FF8
FFF0000000007FF8
FFF0000000007FF8
FFF0000000007FF8
FFF0000000007FF8
FFF0000000007FF8
FFF0000000007FF8
FFE7FFFFFFFE3FF8
FFCFFFFFFFFF1FF8
FF9FFFFFFFFF8FF8
FE3FFFFFFFFFC7F8
FC7FFFFFFFFFE3F8
FCFFFFFFFFFFF1F8
01FFFFFFFFFFF800
00FFFFFFFFFFF000
007FFFFFFFFFE3F8
003FFFFFFFFFC7F8
001FFFFFFFFF8FF8
000FFFFFFFFF1FF8
0007FFFFFFFE3FF8
0000000000007FF8
0000000000007FF8
0000000000007FF8
0000000000007FF8
0000000000007FF8
0000000000007FF8
0000000000007FF8
0000000000007FF8
0000000000007FF8
0000000000007FF8
0000000000007FF8
0000000000007FF8
0000000000007FF8
0000000000007FF8
0000000000007FF8
0000000000007FF8
0000000000007FF8
0000000000007FF8
0000000000007FF8
0000000000007FF8
0000000000007FF8
0000000000007FF8
0000000000007FF8
0000000000007FF8
0000000000007FF8
0000000000007FF8
0000000000007FF8
0000000000007FF8
0000000000007FF8
0000000000007FF8
0000000000003FF8
0007FFFFFFFF1FF8
000FFFFFFFFF8FF8
001FFFFFFFFFC7F8
003FFFFFFFFFE3F8
007FFFFFFFFFF1F8
00FFFFFFFFFFF8F0
01FFFFFFFFFFFC60
03FFFFFFFFFFFE00
07FFFFFFFFFFFF00
07FFFFFFFFFFFF00
03FFFFFFFFFFFE00
01FFFFFFFFFFFC00
ENDCHAR
STARTCHAR colon
ENCODING 58
SWIDTH 200 0
DWIDTH 20 0
BBX 12 53 4 22
BITMAP
0600
3FC0
7FE0
7FE0
FFF0
FFF0
FFF0
FFF0
FFF0
7FE0
7FC0
3F80
0000
0000
0000
0000
0000
0000
0000
0000
0000
0000
0000
0000
0000
0000
0000
0000
0000
0000
0000
0000
0000
0000
0000
0000
0000
0000
0000
0000
0000
0F00
3FC0
7FE0
FFE0
FFF0
FFF0
FFF0
FFF0
FFF0
7FE0
7FC0
1F80
ENDCHAR
STARTCHAR A
ENCODING 65
SWIDTH 816 0
DWIDTH 81 0
BBX 61 94 10 5
BITMAP
01FFFFFFFFFFFC00
03FFFFFFFFFFFE00
07FFFFFFFFFFFF00
07FFFFFFFFFFFF00
03FFFFFFFFFFFE00
31FFFFFFFFFFFC60
78FFFFFFFFFFF8F0
FC7FFFFFFFFFF1F8
FE3FFFFFFFFFE3F8
FF1FFFFFFFFFC7F8
FF8FFFFFFFFF8FF8
FFC7FFFFFFFF1FF8
FFE0000000003FF8
FFF0000000007FF8
FFF0000000007FF8
FFF0000000007FF8
FFF0000000007FF8
FFF0000000007FF8
FFF0000000007FF8
FFF0000000007FF8
FFF0000000007FF8
FFF0000000007FF8
FFF0000000007FF8
FFF0000000007FF8
FFF0000000007FF8
FFF0000000007FF8
FFF0000000007FF8
FFF0000000007FF8
FFF0000000007FF8
FFF0000000007FF8
FFF0000000007FF8
FFF0000000007FF8
FFF0000000007FF8
FFF0000000007FF8
FFF0000000007FF8
FFF0000000007FF8
FFF0000000007FF8
FFF0000000007FF8
FFF0000000007FF8
FFF0000000007FF8
FFF0000000007FF8
FFF0000000007FF8
FFF0000000007FF8
FFE7FFFFFFFE3FF8
FFCFFFFFFFFF1FF8
FF9FFFFFFFFF8FF8
FE3FFFFFFFFFC7F8
FC7FFFFFFFFFE3F8
FCFFFFFFFFFFF1F8
01FFFFFFFFFFF800
FCFFFFFFFFFFF000
FC7FFFFFFFFFE3F8
FE3FFFFFFFFFC7F8
FF9FFFFFFFFF8FF8
FFCFFFFFFFFF1FF8
FFE7FFFFFFFE3FF8
FFF0000000007FF8
FFF0000000007FF8
FFF0000000007FF8
FFF0000000007FF8
FFF0000000007FF8
FFF0000000007FF8
FFF0000000007FF8
FFF0000000007FF8
FFF0000000007FF8
FFF0000000007FF8
FFF0000000007FF8
FFF0000000007FF8
FFF0000000007FF8
FFF0000000007FF8
FFF0000000007FF8
FFF0000000007FF8
FFF0000000007FF8
FFF0000000007FF8
FFF0000000007FF8
FFF0000000007FF8
FFF0000000007FF8
FFF0000000007FF8
FFF0000000007FF8
FFF0000000007FF8
FFF0000000007FF8
FFF0000000007FF8
FFF0000000007FF8
FFF0000000007FF8
FFF0000000007FF8
FFF0000000007FF8
FFE0000000003FF8
FFC0000000001FF8
FF80000000000FF8
FF000000000007F8
FE000000000003F8
FC000000000001F8
78000000000000F0
3000000000000060
ENDCHAR
STARTCHAR B
ENCODING 66
SWIDTH 816 0
DWIDTH 81 0
BBX 61 94 10 0
BITMAP
3000000000000000
7800000000000000
FC00000000000000
FE00000000000000
FF00000000000000
FF80000000000000
FFC0000000000000
FFE0000000000000
FFF0000000000000
FFF0000000000000
FFF0000000000000
FFF0000000000000
FFF0000000000000
FFF0000000000000
FFF0000000000000
FFF0000000000000
FFF0000000000000
FFF0000000000000
FFF0000000000000
FFF0000000000000
FFF0000000000000
FFF0000000000000
FFF0000000000000
FFF0000000000000
FFF0000000000000
FFF0000000000000
FFF0000000000000
FFF0000000000000
FFF0000000000000
FFF0000000000000
FFF0000000000000
FFF0000000000000
FFF0000000000000
FFF0000000000000
FFF0000000000000
FFF0000000000000
FFF0000000000000
FFF0000000000000
FFE7FFFFFFFE0000
FFCFFFFFFFFF0000
FF9FFFFFFFFF8000
FE3FFFFFFFFFC000
FC7FFFFFFFFFE000
FCFFFFFFFFFFF000
01FFFFFFFFFFF800
FCFFFFFFFFFFF000
FC7FFFFFFFFFE3F8
FE3FFFFFFFFFC7F8
FF9FFFFFFFFF8FF8
FFCFFFFFFFFF1FF8
FFE7FFFFFFFE3FF8
FFF0000000007FF8
FFF0000000007FF8
FFF0000000007FF8
FFF0000000007FF8
FFF0000000007FF8
FFF0000000007FF8
FFF0000000007FF8
FFF0000000007FF8
FFF0000000007FF8
FFF0000000007FF8
FFF0000000007FF8
FFF0000000007FF8
FFF0000000007FF8
FFF0000000007FF8
FFF0000000007FF8
FFF0000000007FF8
FFF0000000007FF8
FFF0000000007FF8
FFF0000000007FF8
FFF0000000007FF8
FFF0000000007FF8
FFF0000000007FF8
FFF0000000007FF8
FFF0000000007FF8
FFF0000000007FF8
FFF0000000007FF8
FFF0000000007FF8
FFF0000000007FF8
FFF0000000007FF8
FFF0000000007FF8
FFE0000000003FF8
FFC7FFFFFFFF1FF8
FF8FFFFFFFFF8FF8
FF1FFFFFFFFFC7F8
FE3FFFFFFFFFE3F8
FC7FFFFFFFFFF1F8
78FFFFFFFFFFF8F0
31FFFFFFFFFFFC60
03FFFFFFFFFFFE00
07FFFFFFFFFFFF00
07FFFFFFFFFFFF00
03FFFFFFFFFFFE00
01FFFFFFFFFFFC00
ENDCHAR
STARTCHAR C
ENCODING 67
SWIDTH 816 0
DWIDTH 81 0
BBX 56 56 10 0
BITMAP
0007FFFFFFFE00
000FFFFFFFFF00
001FFFFFFFFF80
003FFFFFFFFFC0
007FFFFFFFFFE0
00FFFFFFFFFFF0
01FFFFFFFFFFF8
FCFFFFFFFFFFF0
FC7FFFFFFFFFE0
FE3FFFFFFFFFC0
FF9FFFFFFFFF80
FFCFFFFFFFFF00
FFE7FFFFFFFE00
FFF00000000000
FFF00000000000
FFF00000000000
FFF00000000000
FFF00000000000
FFF00000000000
FFF00000000000
FFF00000000000
FFF00000000000
FFF00000000000
FFF00000000000
FFF00000000000
FFF00000000000
FFF00000000000
FFF00000000000
FFF00000000000
FFF00000000000
FFF00000000000
FFF00000000000
FFF00000000000
FFF00000000000
FFF00000000000
FFF00000000000
FFF00000000000
FFF00000000000
FFF00000000000
FFF00000000000
FFF00000000000
FFF00000000000
FFF00000000000
FFE00000000000
FFC7FFFFFFFF00
FF8FFFFFFFFF80
FF1FFFFFFFFFC0
FE3FFFFFFFFFE0
FC7FFFFFFFFFF0
78FFFFFFFFFFF8
31FFFFFFFFFFFC
03FFFFFFFFFFFE
07FFFFFFFFFFFF
07FFFFFFFFFFFF
03FFFFFFFFFFFE
01FFFFFFFFFFFC
ENDCHAR
STARTCHAR D
ENCODING 68
SWIDTH 816 0
DWIDTH 81 0
BBX 61 94 10 0
BITMAP
0000000000000060
00000000000000F0
00000000000001F8
00000000000003F8
00000000000007F8
0000000000000FF8
0000000000001FF8
0000000000003FF8
0000000000007FF8
0000000000007FF8
0000000000007FF8
0000000000007FF8
0000000000007FF8
0000000000007FF8
0000000000007FF8
0000000000007FF8
0000000000007FF8
0000000000007FF8
0000000000007FF8
0000000000007FF8
0000000000007FF8
0000000000007FF8
0000000000007FF8
0000000000007FF8
0000000000007FF8
0000000000007FF8
0000000000007FF8
0000000000007FF8
0000000000007FF8
0000000000007FF8
0000000000007FF8
0000000000007FF8
0000000000007FF8
0000000000007FF8
0000000000007FF8
0000000000007FF8
0000000000007FF8
0000000000007FF8
0007FFFFFFFE3FF8
000FFFFFFFFF1FF8
001FFFFFFFFF8FF8
003FFFFFFFFFC7F8
007FFFFFFFFFE3F8
00FFFFFFFFFFF1F8
01FFFFFFFFFFF800
FCFFFFFFFFFFF000
FC7FFFFFFFFFE3F8
FE3FFFFFFFFFC7F8
FF9FFFFFFFFF8FF8
FFCFFFFFFFFF1FF8
FFE7FFFFFFFE3FF8
FFF0000000007FF8
FFF0000000007FF8
FFF0000000007FF8
FFF0000000007FF8
FFF0000000007FF8
FFF0000000007FF8
FFF0000000007FF8
FFF0000000007FF8
FFF0000000007FF8
FFF0000000007FF8
FFF0000000007FF8
FFF0000000007FF8
FFF0000000007FF8
FFF0000000007FF8
FFF0000000007FF8
FFF0000000007FF8
FFF0000000007FF8
FFF0000000007FF8
FFF0000000007FF8
FFF0000000007FF8
FFF0000000007FF8
FFF0000000007FF8
FFF0000000007FF8
FFF0000000007FF8
FFF0000000007FF8
FFF0000000007FF8
FFF0000000007FF8
FFF0000000007FF8
FFF0000000007FF8
FFF0000000007FF8
FFE0000000003FF8
FFC7FFFFFFFF1FF8
FF8FFFFFFFFF8FF8
FF1FFFFFFFFFC7F8
FE3FFFFFFFFFE3F8
FC7FFFFFFFFFF1F8
78FFFFFFFFFFF8F0
31FFFFFFFFFFFC60
03FFFFFFFFFFFE00
07FFFFFFFFFFFF00
07FFFFFFFFFFFF00
03FFFFFFFFFFFE00
01FFFFFFFFFFFC00
ENDCHAR
STARTCHAR E
ENCODING 69
SWIDTH 816 0
DWIDTH 81 0
BBX 56 99 10 0
BITMAP
01FFFFFFFFFFFC
03FFFFFFFFFFFE
07FFFFFFFFFFFF
07FFFFFFFFFFFF
03FFFFFFFFFFFE
31FFFFFFFFFFFC
78FFFFFFFFFFF8
FC7FFFFFFFFFF0
FE3FFFFFFFFFE0
FF1FFFFFFFFFC0
FF8FFFFFFFFF80
FFC7FFFFFFFF00
FFE00000000000
FFF00000000000
FFF00000000000
FFF00000000000
FFF00000000000
FFF00000000000
FFF00000000000
FFF00000000000
FFF00000000000
FFF00000000000
FFF00000000000
FFF00000000000
FFF00000000000
FFF00000000000
FFF00000000000
FFF00000000000
FFF00000000000
FFF00000000000
FFF00000000000
FFF00000000000
FFF00000000000
FFF00000000000
FFF00000000000
FFF00000000000
FFF00000000000
FFF00000000000
FFF00000000000
FFF00000000000
FFF00000000000
FFF00000000000
FFF00000000000
FFE7FFFFFFFE00
FFCFFFFFFFFF00
FF9FFFFFFFFF80
FE3FFFFFFFFFC0
FC7FFFFFFFFFE0
FCFFFFFFFFFFF0
01FFFFFFFFFFF8
FCFFFFFFFFFFF0
FC7FFFFFFFFFE0
FE3FFFFFFFFFC0
FF9FFFFFFFFF80
FFCFFFFFFFFF00
FFE7FFFFFFFE00
FFF00000000000
FFF00000000000
FFF00000000000
FFF00000000000
FFF00000000000
FFF00000000000
FFF00000000000
FFF00000000000
FFF00000000000
FFF00000000000
FFF00000000000
FFF00000000000
FFF00000000000
FFF00000000000
FFF00000000000
FFF00000000000
FFF00000000000
FFF00000000000
FFF00000000000
FFF00000000000
FFF00000000000
FFF00000000000
FFF00000000000
FFF00000000000
FFF00000000000
FFF00000000000
FFF00000000000
FFF00000000000
FFF00000000000
FFF00000000000
FFE00000000000
FFC7FFFFFFFF00
FF8FFFFFFFFF80
FF1FFFFFFFFFC0
FE3FFFFFFFFFE0
FC7FFFFFFFFFF0
78FFFFFFFFFFF8
31FFFFFFFFFFFC
03FFFFFFFFFFFE
07FFFFFFFFFFFF
07FFFFFFFFFFFF
03FFFFFFFFFFFE
01FFFFFFFFFFFC
ENDCHAR
STARTCHAR F
ENCODING 70
SWIDTH 816 0
DWIDTH 81 0
BBX 56 94 10 5
BITMAP
01FFFFFFFFFFFC
03FFFFFFFFFFFE
07FFFFFFFFFFFF
07FFFFFFFFFFFF
03FFFFFFFFFFFE
31FFFFFFFFFFFC
78FFFFFFFFFFF8
FC7FFFFFFFFFF0
FE3FFFFFFFFFE0
FF1FFFFFFFFFC0
FF8FFFFFFFFF80
FFC7FFFFFFFF00
FFE00000000000
FFF00000000000
FFF00000000000
FFF00000000000
FFF00000000000
FFF00000000000
FFF00000000000
FFF00000000000
FFF00000000000
FFF00000000000
FFF00000000000
FFF00000000000
FFF00000000000
FFF00000000000
FFF00000000000
FFF00000000000
FFF00000000000
FFF00000000000
FFF00000000000
FFF00000000000
FFF00000000000
FFF00000000000
FFF00000000000
FFF00000000000
FFF00000000000
FFF00000000000
FFF00000000000
FFF00000000000
FFF00000000000
FFF00000000000
FFF00000000000
FFE7FFFFFFFE00
FFCFFFFFFFFF00
FF9FFFFFFFFF80
FE3FFFFFFFFFC0
FC7FFFFFFFFFE0
FCFFFFFFFFFFF0
01FFFFFFFFFFF8
FCFFFFFFFFFFF0
FC7FFFFFFFFFE0
FE3FFFFFFFFFC0
FF9FFFFFFFFF80
FFCFFFFFFFFF00
FFE7FFFFFFFE00
FFF00000000000
FFF00000000000
FFF00000000000
FFF00000000000
FFF00000000000
FFF00000000000
FFF00000000000
FFF00000000000
FFF00000000000
FFF00000000000
FFF00000000000
FFF00000000000
FFF00000000000
FFF00000000000
FFF00000000000
FFF00000000000
FFF00000000000
FFF00000000000
FFF00000000000
FFF00000000000
FFF00000000000
FFF00000000000
FFF00000000000
FFF00000000000
FFF00000000000
FFF00000000000
FFF00000000000
FFF00000000000
FFF00000000000
FFF00000000000
FFE00000000000
FFC00000000000
FF800000000000
FF000000000000
FE000000000000
FC000000000000
78000000000000
30000000000000
ENDCHAR
STARTCHAR G
ENCODING 71
SWIDTH 816 0
DWIDTH 81 0
BBX 61 99 10 0
BITMAP
01FFFFFFFFFFFC00
03FFFFFFFFFFFE00
07FFFFFFFFFFFF00
07FFFFFFFFFFFF00
03FFFFFFFFFFFE00
31FFFFFFFFFFFC00
78FFFFFFFFFFF800
FC7FFFFFFFFFF000
FE3FFFFFFFFFE000
FF1FFFFFFFFFC000
FF8FFFFFFFFF8000
FFC7FFFFFFFF0000
FFE0000000000000
FFF0000000000000
FFF0000000000000
FFF0000000000000
FFF0000000000000
FFF0000000000000
FFF0000000000000
FFF0000000000000
FFF0000000000000
FFF0000000000000
FFF0000000000000
FFF0000000000000
FFF0000000000000
FFF0000000000000
FFF0000000000000
FFF0000000000000
FFF0000000000000
FFF0000000000000
FFF0000000000000
FFF0000000000000
FFF0000000000000
FFF0000000000000
FFF0000000000000
FFF0000000000000
FFF0000000000000
FFF0000000000000
FFF0000000000000
FFF0000000000000
FFF0000000000000
FFF0000000000000
FFF0000000000000
FFE0000000000000
FFC0000000000000
FF80000000000000
FE00000000000000
FC00000000000000
FC00000000000000
0000000000000000
FC00000000000000
FC000000000003F8
FE000000000007F8
FF80000000000FF8
FFC0000000001FF8
FFE0000000003FF8
FFF0000000007FF8
FFF0000000007FF8
FFF0000000007FF8
FFF0000000007FF8
FFF0000000007FF8
FFF0000000007FF8
FFF0000000007FF8
FFF0000000007FF8
FFF0000000007FF8
FFF0000000007FF8
FFF0000000007FF8
FFF0000000007FF8
FFF0000000007FF8
FFF0000000007FF8
FFF0000000007FF8
FFF0000000007FF8
FFF0000000007FF8
FFF0000000007FF8
FFF0000000007FF8
FFF0000000007FF8
FFF0000000007FF8
FFF0000000007FF8
FFF0000000007FF8
FFF0000000007FF8
FFF0000000007FF8
FFF0000000007FF8
FFF0000000007FF8
FFF0000000007FF8
FFF0000000007FF8
FFF0000000007FF8
FFE0000000003FF8
FFC7FFFFFFFF1FF8
FF8FFFFFFFFF8FF8
FF1FFFFFFFFFC7F8
FE3FFFFFFFFFE3F8
FC7FFFFFFFFFF1F8
78FFFFFFFFFFF8F0
31FFFFFFFFFFFC60
03FFFFFFFFFFFE00
07FFFFFFFFFFFF00
07FFFFFFFFFFFF00
03FFFFFFFFFFFE00
01FFFFFFFFFFFC00
ENDCHAR
STARTCHAR H
ENCODING 72
SWIDTH 816 0
DWIDTH 81 0
BBX 61 89 10 5
BITMAP
3000000000000000
7800000000000000
FC00000000000000
FE00000000000000
FF00000000000000
FF80000000000000
FFC0000000000000
FFE0000000000000
FFF0000000000000
FFF0000000000000
FFF0000000000000
FFF0000000000000
FFF0000000000000
FFF0000000000000
FFF0000000000000
FFF0000000000000
FFF0000000000000
FFF0000000000000
FFF0000000000000
FFF0000000000000
FFF0000000000000
FFF0000000000000
FFF0000000000000
FFF0000000000000
FFF0000000000000
FFF0000000000000
FFF0000000000000
FFF0000000000000
FFF0000000000000
FFF0000000000000
FFF0000000000000
FFF0000000000000
FFF0000000000000
FFF0000000000000
FFF0000000000000
FFF0000000000000
FFF0000000000000
FFF0000000000000
FFE7FFFFFFFE0000
FFCFFFFFFFFF0000
FF9FFFFFFFFF8000
FE3FFFFFFFFFC000
FC7FFFFFFFFFE000
FCFFFFFFFFFFF000
01FFFFFFFFFFF800
FCFFFFFFFFFFF000
FC7FFFFFFFFFE3F8
FE3FFFFFFFFFC7F8
FF9FFFFFFFFF8FF8
FFCFFFFFFFFF1FF8
FFE7FFFFFFFE3FF8
FFF0000000007FF8
FFF0000000007FF8
FFF0000000007FF8
FFF0000000007FF8
FFF0000000007FF8
FFF0000000007FF8
FFF0000000007FF8
FFF0000000007FF8
FFF0000000007FF8
FFF0000000007FF8
FFF0000000007FF8
FFF0000000007FF8
FFF0000000007FF8
FFF0000000007FF8
FFF0000000007FF8
FFF0000000007FF8
FFF0000000007FF8
FFF0000000007FF8
FFF0000000007FF8
FFF0000000007FF8
FFF0000000007FF8
FFF0000000007FF8
FFF0000000007FF8
FFF0000000007FF8
FFF0000000007FF8
FFF0000000007FF8
FFF0000000007FF8
FFF0000000007FF8
FFF0000000007FF8
FFF0000000007FF8
FFE0000000003FF8
FFC0000000001FF8
FF80000000000FF8
FF000000000007F8
FE000000000003F8
FC000000000001F8
78000000000000F0
3000000000000060
ENDCHAR
STARTCHAR I
ENCODING 73
SWIDTH 816 0
DWIDTH 81 0
BBX 12 43 59 5
BITMAP
07F0
0FF0
1FF0
3FF0
7FF0
FFF0
FFF0
FFF0
FFF0
FFF0
FFF0
FFF0
FFF0
FFF0
FFF0
FFF0
FFF0
FFF0
FFF0
FFF0
FFF0
FFF0
FFF0
FFF0
FFF0
FFF0
FFF0
FFF0
FFF0
FFF0
FFF0
FFF0
FFF0
FFF0
FFF0
7FF0
3FF0
1FF0
0FF0
07F0
03F0
01E0
00C0
ENDCHAR
STARTCHAR J
ENCODING 74
SWIDTH 816 0
DWIDTH 81 0
BBX 61 94 10 0
BITMAP
0000000000000060
00000000000000F0
00000000000001F8
00000000000003F8
00000000000007F8
0000000000000FF8
0000000000001FF8
0000000000003FF8
0000000000007FF8
0000000000007FF8
0000000000007FF8
0000000000007FF8
0000000000007FF8
0000000000007FF8
0000000000007FF8
0000000000007FF8
0000000000007FF8
0000000000007FF8
0000000000007FF8
0000000000007FF8
0000000000007FF8
0000000000007FF8
0000000000007FF8
0000000000007FF8
0000000000007FF8
0000000000007FF8
0000000000007FF8
0000000000007FF8
0000000000007FF8
0000000000007FF8
0000000000007FF8
0000000000007FF8
0000000000007FF8
0000000000007FF8
0000000000007FF8
0000000000007FF8
0000000000007FF8
0000000000007FF8
0000000000003FF8
0000000000001FF8
0000000000000FF8
00000000000007F8
00000000000003F8
00000000000001F8
0000000000000000
FC00000000000000
FC000000000003F8
FE000000000007F8
FF80000000000FF8
FFC0000000001FF8
FFE0000000003FF8
FFF0000000007FF8
FFF0000000007FF8
FFF0000000007FF8
FFF0000000007FF8
FFF0000000007FF8
FFF0000000007FF8
FFF0000000007FF8
FFF0000000007FF8
FFF0000000007FF8
FFF0000000007FF8
FFF0000000007FF8
FFF0000000007FF8
FFF0000000007FF8
FFF0000000007FF8
FFF0000000007FF8
FFF0000000007FF8
FFF0000000007FF8
FFF0000000007FF8
FFF0000000007FF8
FFF0000000007FF8
FFF0000000007FF8
FFF0000000007FF8
FFF0000000007FF8
FFF0000000007FF8
FFF0000000007FF8
FFF0000000007FF8
FFF0000000007FF8
FFF0000000007FF8
FFF0000000007FF8
FFF0000000007FF8
FFE0000000003FF8
FFC7FFFFFFFF1FF8
FF8FFFFFFFFF8FF8
FF1FFFFFFFFFC7F8
FE3FFFFFFFFFE3F8
FC7FFFFFFFFFF1F8
78FFFFFFFFFFF8F0
31FFFFFFFFFFFC60
03FFFFFFFFFFFE00
07FFFFFFFFFFFF00
07FFFFFFFFFFFF00
03FFFFFFFFFFFE00
01FFFFFFFFFFFC00
ENDCHAR
STARTCHAR K
ENCODING 75
SWIDTH 816 0
DWIDTH 81 0
BBX 61 94 10 5
BITMAP
01FFFFFFFFFFFC00
03FFFFFFFFFFFE00
07FFFFFFFFFFFF00
07FFFFFFFFFFFF00
03FFFFFFFFFFFE00
31FFFFFFFFFFFC00
78FFFFFFFFFFF800
FC7FFFFFFFFFF000
FE3FFFFFFFFFE000
FF1FFFFFFFFFC000
FF8FFFFFFFFF8000
FFC7FFFFFFFF0000
FFE0000000000000
FFF0000000000000
FFF0000000000000
FFF0000000000000
FFF0000000000000
FFF0000000000000
FFF0000000000000
FFF0000000000000
FFF0000000000000
FFF0000000000000
FFF0000000000000
FFF0000000000000
FFF0000000000000
FFF0000000000000
FFF0000000000000
FFF0000000000000
FFF0000000000000
FFF0000000000000
FFF0000000000000
FFF0000000000000
FFF0000000000000
FFF0000000000000
FFF0000000000000
FFF0000000000000
FFF0000000000000
FFF0000000000000
FFF0000000000000
FFF0000000000000
FFF0000000000000
FFF0000000000000
FFF0000000000000
FFE7FFFFFFFE0000
FFCFFFFFFFFF0000
FF9FFFFFFFFF8000
FE3FFFFFFFFFC000
FC7FFFFFFFFFE000
FCFFFFFFFFFFF000
01FFFFFFFFFFF800
FCFFFFFFFFFFF000
FC7FFFFFFFFFE3F8
FE3FFFFFFFFFC7F8
FF9FFFFFFFFF8FF8
FFCFFFFFFFFF1FF8
FFE7FFFFFFFE3FF8
FFF0000000007FF8
FFF0000000007FF8
FFF0000000007FF8
FFF0000000007FF8
FFF0000000007FF8
FFF0000000007FF8
FFF0000000007FF8
FFF0000000007FF8
FFF0000000007FF8
FFF0000000007FF8
FFF0000000007FF8
FFF0000000007FF8
FFF0000000007FF8
FFF0000000007FF8
FFF0000000007FF8
FFF0000000007FF8
FFF0000000007FF8
FFF0000000007FF8
FFF0000000007FF8
FFF0000000007FF8
FFF0000000007FF8
FFF0000000007FF8
FFF0000000007FF8
FFF0000000007FF8
FFF0000000007FF8
FFF0000000007FF8
FFF0000000007FF8
FFF0000000007FF8
FFF0000000007FF8
FFF0000000007FF8
FFE0000000003FF8
FFC0000000001FF8
FF80000000000FF8
FF000000000007F8
FE000000000003F8
FC000000000001F8
78000000000000F0
3000000000000060
ENDCHAR
STARTCHAR L
ENCODING 76
SWIDTH 816 0
DWIDTH 81 0
BBX 56 94 10 0
BITMAP
30000000000000
78000000000000
FC000000000000
FE000000000000
FF000000000000
FF800000000000
FFC00000000000
FFE00000000000
FFF00000000000
FFF00000000000
FFF00000000000
FFF00000000000
FFF00000000000
FFF00000000000
FFF00000000000
FFF00000000000
FFF00000000000
FFF00000000000
FFF00000000000
FFF00000000000
FFF00000000000
FFF00000000000
FFF00000000000
FFF00000000000
FFF00000000000
FFF00000000000
FFF00000000000
FFF00000000000
FFF00000000000
FFF00000000000
FFF00000000000
FFF00000000000
FFF00000000000
FFF00000000000
FFF00000000000
FFF00000000000
FFF00000000000
FFF00000000000
FFE00000000000
FFC00000000000
FF800000000000
FE000000000000
FC000000000000
FC000000000000
00000000000000
FC000000000000
FC000000000000
FE000000000000
FF800000000000
FFC00000000000
FFE00000000000
FFF00000000000
FFF00000000000
FFF00000000000
FFF00000000000
FFF00000000000
FFF00000000000
FFF00000000000
FFF00000000000
FFF00000000000
FFF00000000000
FFF00000000000
FFF00000000000
FFF00000000000
FFF00000000000
FFF00000000000
FFF00000000000
FFF00000000000
FFF00000000000
FFF00000000000
FFF00000000000
FFF00000000000
FFF00000000000
FFF00000000000
FFF00000000000
FFF00000000000
FFF00000000000
FFF00000000000
FFF00000000000
FFF00000000000
FFF00000000000
FFE00000000000
FFC7FFFFFFFF00
FF8FFFFFFFFF80
FF1FFFFFFFFFC0
FE3FFFFFFFFFE0
FC7FFFFFFFFFF0
78FFFFFFFFFFF8
31FFFFFFFFFFFC
03FFFFFFFFFFFE
07FFFFFFFFFFFF
07FFFFFFFFFFFF
03FFFFFFFFFFFE
01FFFFFFFFFFFC
ENDCHAR
STARTCHAR M
ENCODING 77
SWIDTH 816 0
DWIDTH 81 0
BBX 61 94 10 5
BITMAP
01FFFFFFFFFFFC00
03FFFFFFFFFFFE00
07FFFFFFFFFFFF00
07FFFFFFFFFFFF00
03FFFFFFFFFFFE00
31FFFFFFFFFFFC60
78FFFFFFFFFFF8F0
FC7FFFFFFFFFF1F8
FE3FFFFFFFFFE3F8
FF1FFFFFFFFFC7F8
FF8FFFFFFFFF8FF8
FFC7FFFFFFFF1FF8
FFE0000000003FF8
FFF0000000007FF8
FFF0000000007FF8
FFF0000000007FF8
FFF0000000007FF8
FFF0000000007FF8
FFF0000000007FF8
FFF0000000007FF8
FFF0000000007FF8
FFF0000000007FF8
FFF0000000007FF8
FFF0000000007FF8
FFF0000000007FF8
FFF0000000007FF8
FFF0000000007FF8
FFF0000000007FF8
FFF0000000007FF8
FFF0000000007FF8
FFF0000000007FF8
FFF0000000007FF8
FFF0000000007FF8
FFF0000000007FF8
FFF0000000007FF8
FFF0000000007FF8
FFF0000000007FF8
FFF0000000007FF8
FFF0000000007FF8
FFF0000000007FF8
FFF0000000007FF8
FFF0000000007FF8
FFF0000000007FF8
FFE0000000003FF8
FFC0000000001FF8
FF80000000000FF8
FE000000000007F8
FC000000000003F8
FC000000000001F8
0000000000000000
FC00000000000000
FC000000000003F8
FE000000000007F8
FF80000000000FF8
FFC0000000001FF8
FFE0000000003FF8
FFF0000000007FF8
FFF0000000007FF8
FFF0000000007FF8
FFF0000000007FF8
FFF0000000007FF8
FFF0000000007FF8
FFF0000000007FF8
FFF0000000007FF8
FFF0000000007FF8
FFF0000000007FF8
FFF0000000007FF8
FFF0000000007FF8
FFF0000000007FF8
FFF0000000007FF8
FFF0000000007FF8
FFF0000000007FF8
FFF0000000007FF8
FFF0000000007FF8
FFF0000000007FF8
FFF0000000007FF8
FFF0000000007FF8
FFF0000000007FF8
FFF0000000007FF8
FFF0000000007FF8
FFF0000000007FF8
FFF0000000007FF8
FFF0000000007FF8
FFF0000000007FF8
FFF0000000007FF8
FFF0000000007FF8
FFE0000000003FF8
FFC0000000001FF8
FF80000000000FF8
FF000000000007F8
FE000000000003F8
FC000000000001F8
78000000000000F0
3000000000000060
ENDCHAR
STARTCHAR N
ENCODING 78
SWIDTH 816 0
DWIDTH 81 0
BBX 61 51 10 5
BITMAP
0007FFFFFFFE0000
000FFFFFFFFF0000
001FFFFFFFFF8000
003FFFFFFFFFC000
007FFFFFFFFFE000
00FFFFFFFFFFF000
01FFFFFFFFFFF800
FCFFFFFFFFFFF000
FC7FFFFFFFFFE3F8
FE3FFFFFFFFFC7F8
FF9FFFFFFFFF8FF8
FFCFFFFFFFFF1FF8
FFE7FFFFFFFE3FF8
FFF0000000007FF8
FFF0000000007FF8
FFF0000000007FF8
FFF0000000007FF8
FFF0000000007FF8
FFF0000000007FF8
FFF0000000007FF8
FFF0000000007FF8
FFF0000000007FF8
FFF0000000007FF8
FFF0000000007FF8
FFF0000000007FF8
FFF0000000007FF8
FFF0000000007FF8
FFF0000000007FF8
FFF0000000007FF8
FFF0000000007FF8
FFF0000000007FF8
FFF0000000007FF8
FFF0000000007FF8
FFF0000000007FF8
FFF0000000007FF8
FFF0000000007FF8
FFF0000000007FF8
FFF0000000007FF8
FFF0000000007FF8
FFF0000000007FF8
FFF0000000007FF8
FFF0000000007FF8
FFF0000000007FF8
FFE0000000003FF8
FFC0000000001FF8
FF80000000000FF8
FF000000000007F8
FE000000000003F8
FC000000000001F8
78000000000000F0
3000000000000060
ENDCHAR
STARTCHAR O
ENCODING 79
SWIDTH 816 0
DWIDTH 81 0
BBX 61 56 10 0
BITMAP
0007FFFFFFFE0000
000FFFFFFFFF0000
001FFFFFFFFF8000
003FFFFFFFFFC000
007FFFFFFFFFE000
00FFFFFFFFFFF000
01FFFFFFFFFFF800
FCFFFFFFFFFFF000
FC7FFFFFFFFFE3F8
FE3FFFFFFFFFC7F8
FF9FFFFFFFFF8FF8
FFCFFFFFFFFF1FF8
FFE7FFFFFFFE3FF8
FFF0000000007FF8
FFF0000000007FF8
FFF0000000007FF8
FFF0000000007FF8
FFF0000000007FF8
FFF0000000007FF8
FFF0000000007FF8
FFF0000000007FF8
FFF0000000007FF8
FFF0000000007FF8
FFF0000000007FF8
FFF0000000007FF8
FFF0000000007FF8
FFF0000000007FF8
FFF0000000007FF8
FFF0000000007FF8
FFF0000000007FF8
FFF0000000007FF8
FFF0000000007FF8
FFF0000000007FF8
FFF0000000007FF8
FFF0000000007FF8
FFF0000000007FF8
FFF0000000007FF8
FFF0000000007FF8
FFF0000000007FF8
FFF0000000007FF8
FFF0000000007FF8
FFF0000000007FF8
FFF0000000007FF8
FFE0000000003FF8
FFC7FFFFFFFF1FF8
FF8FFFFFFFFF8FF8
FF1FFFFFFFFFC7F8
FE3FFFFFFFFFE3F8
FC7FFFFFFFFFF1F8
78FFFFFFFFFFF8F0
31FFFFFFFFFFFC60
03FFFFFFFFFFFE00
07FFFFFFFFFFFF00
07FFFFFFFFFFFF00
03FFFFFFFFFFFE00
01FFFFFFFFFFFC00
ENDCHAR
STARTCHAR P
ENCODING 80
SWIDTH 816 0
DWIDTH 81 0
BBX 61 94 10 5
BITMAP
01FFFFFFFFFFFC00
03FFFFFFFFFFFE00
07FFFFFFFFFFFF00
07FFFFFFFFFFFF00
03FFFFFFFFFFFE00
31FFFFFFFFFFFC60
78FFFFFFFFFFF8F0
FC7FFFFFFFFFF1F8
FE3FFFFFFFFFE3F8
FF1FFFFFFFFFC7F8
FF8FFFFFFFFF8FF8
FFC7FFFFFFFF1FF8
FFE0000000003FF8
FFF0000000007FF8
FFF0000000007FF8
FFF0000000007FF8
FFF0000000007FF8
FFF0000000007FF8
FFF0000000007FF8
FFF0000000007FF8
FFF0000000007FF8
FFF0000000007FF8
FFF0000000007FF8
FFF0000000007FF8
FFF0000000007FF8
FFF0000000007FF8
FFF0000000007FF8
FFF0000000007FF8
FFF0000000007FF8
FFF0000000007FF8
FFF0000000007FF8
FFF0000000007FF8
FFF0000000007FF8
FFF0000000007FF8
FFF0000000007FF8
FFF0000000007FF8
FFF0000000007FF8
FFF0000000007FF8
FFF0000000007FF8
FFF0000000007FF8
FFF0000000007FF8
FFF0000000007FF8
FFF0000000007FF8
FFE7FFFFFFFE3FF8
FFCFFFFFFFFF1FF8
FF9FFFFFFFFF8FF8
FE3FFFFFFFFFC7F8
FC7FFFFFFFFFE3F8
FCFFFFFFFFFFF1F8
01FFFFFFFFFFF800
FCFFFFFFFFFFF000
FC7FFFFFFFFFE000
FE3FFFFFFFFFC000
FF9FFFFFFFFF8000
FFCFFFFFFFFF0000
FFE7FFFFFFFE0000
FFF0000000000000
FFF0000000000000
FFF0000000000000
FFF0000000000000
FFF0000000000000
FFF0000000000000
FFF0000000000000
FFF0000000000000
FFF0000000000000
FFF0000000000000
FFF0000000000000
FFF0000000000000
FFF0000000000000
FFF0000000000000
FFF0000000000000
FFF0000000000000
FFF0000000000000
FFF0000000000000
FFF0000000000000
FFF0000000000000
FFF0000000000000
FFF0000000000000
FFF0000000000000
FFF0000000000000
FFF0000000000000
FFF0000000000000
FFF0000000000000
FFF0000000000000
FFF0000000000000
FFF0000000000000
FFE0000000000000
FFC0000000000000
FF80000000000000
FF00000000000000
FE00000000000000
FC00000000000000
7800000000000000
3000000000000000
ENDCHAR
STARTCHAR Q
ENCODING 81
SWIDTH 816 0
DWIDTH 81 0
BBX 61 94 10 5
BITMAP
01FFFFFFFFFFFC00
03FFFFFFFFFFFE00
07FFFFFFFFFFFF00
07FFFFFFFFFFFF00
03FFFFFFFFFFFE00
31FFFFFFFFFFFC60
78FFFFFFFFFFF8F0
FC7FFFFFFFFFF1F8
FE3FFFFFFFFFE3F8
FF1FFFFFFFFFC7F8
FF8FFFFFFFFF8FF8
FFC7FFFFFFFF1FF8
FFE0000000003FF8
FFF0000000007FF8
FFF0000000007FF8
FFF0000000007FF8
FFF0000000007FF8
FFF0000000007FF8
FFF0000000007FF8
FFF0000000007FF8
FFF0000000007FF8
FFF0000000007FF8
FFF0000000007FF8
FFF0000000007FF8
FFF0000000007FF8
FFF0000000007FF8
FFF0000000007FF8
FFF0000000007FF8
FFF0000000007FF8
FFF0000000007FF8
FFF0000000007FF8
FFF0000000007FF8
FFF0000000007FF8
FFF0000000007FF8
FFF0000000007FF8
FFF0000000007FF8
FFF0000000007FF8
FFF0000000007FF8
FFF0000000007FF8
FFF0000000007FF8
FFF0000000007FF8
FFF0000000007FF8
FFF0000000007FF8
FFE7FFFFFFFE3FF8
FFCFFFFFFFFF1FF8
FF9FFFFFFFFF8FF8
FE3FFFFFFFFFC7F8
FC7FFFFFFFFFE3F8
FCFFFFFFFFFFF1F8
01FFFFFFFFFFF800
00FFFFFFFFFFF000
007FFFFFFFFFE3F8
003FFFFFFFFFC7F8
001FFFFFFFFF8FF8
000FFFFFFFFF1FF8
0007FFFFFFFE3FF8
0000000000007FF8
0000000000007FF8
0000000000007FF8
0000000000007FF8
0000000000007FF8
0000000000007FF8
0000000000007FF8
0000000000007FF8
0000000000007FF8
0000000000007FF8
0000000000007FF8
0000000000007FF8
0000000000007FF8
0000000000007FF8
0000000000007FF8
0000000000007FF8
0000000000007FF8
0000000000007FF8
0000000000007FF8
0000000000007FF8
0000000000007FF8
0000000000007FF8
0000000000007FF8
0000000000007FF8
0000000000007FF8
0000000000007FF8
0000000000007FF8
0000000000007FF8
0000000000007FF8
0000000000007FF8
0000000000003FF8
0000000000001FF8
0000000000000FF8
00000000000007F8
00000000000003F8
00000000000001F8
00000000000000F0
0000000000000060
ENDCHAR
STARTCHAR R
ENCODING 82
SWIDTH 816 0
DWIDTH 81 0
BBX 53 51 10 5
BITMAP
0007FFFFFFFE00
000FFFFFFFFF00
001FFFFFFFFF80
003FFFFFFFFFC0
007FFFFFFFFFE0
00FFFFFFFFFFF0
01FFFFFFFFFFF8
FCFFFFFFFFFFF0
FC7FFFFFFFFFE0
FE3FFFFFFFFFC0
FF9FFFFFFFFF80
FFCFFFFFFFFF00
FFE7FFFFFFFE00
FFF00000000000
FFF00000000000
FFF00000000000
FFF00000000000
FFF00000000000
FFF00000000000
FFF00000000000
FFF00000000000
FFF00000000000
FFF00000000000
FFF00000000000
FFF00000000000
FFF00000000000
FFF00000000000
FFF00000000000
FFF00000000000
FFF00000000000
FFF00000000000
FFF00000000000
FFF00000000000
FFF00000000000
FFF00000000000
FFF00000000000
FFF00000000000
FFF00000000000
FFF00000000000
FFF00000000000
FFF00000000000
FFF00000000000
FFF00000000000
FFE00000000000
FFC00000000000
FF800000000000
FF000000000000
FE000000000000
FC000000000000
78000000000000
30000000000000
ENDCHAR
STARTCHAR S
ENCODING 83
SWIDTH 816 0
DWIDTH 81 0
BBX 61 94 10 0
BITMAP
3000000000000000
7800000000000000
FC00000000000000
FE00000000000000
FF00000000000000
FF80000000000000
FFC0000000000000
FFE0000000000000
FFF0000000000000
FFF0000000000000
FFF0000000000000
FFF0000000000000
FFF0000000000000
FFF0000000000000
FFF0000000000000
FFF0000000000000
FFF0000000000000
FFF0000000000000
FFF0000000000000
FFF0000000000000
FFF0000000000000
FFF0000000000000
FFF0000000000000
FFF0000000000000
FFF0000000000000
FFF0000000000000
FFF0000000000000
FFF0000000000000
FFF0000000000000
FFF0000000000000
FFF0000000000000
FFF0000000000000
FFF0000000000000
FFF0000000000000
FFF0000000000000
FFF0000000000000
FFF0000000000000
FFF0000000000000
FFE7FFFFFFFE0000
FFCFFFFFFFFF0000
FF9FFFFFFFFF8000
FE3FFFFFFFFFC000
FC7FFFFFFFFFE000
FCFFFFFFFFFFF000
01FFFFFFFFFFF800
00FFFFFFFFFFF000
007FFFFFFFFFE3F8
003FFFFFFFFFC7F8
001FFFFFFFFF8FF8
000FFFFFFFFF1FF8
0007FFFFFFFE3FF8
0000000000007FF8
0000000000007FF8
0000000000007FF8
0000000000007FF8
0000000000007FF8
0000000000007FF8
0000000000007FF8
0000000000007FF8
0000000000007FF8
0000000000007FF8
0000000000007FF8
0000000000007FF8
0000000000007FF8
0000000000007FF8
0000000000007FF8
0000000000007FF8
0000000000007FF8
0000000000007FF8
0000000000007FF8
0000000000007FF8
0000000000007FF8
0000000000007FF8
0000000000007FF8
0000000000007FF8
0000000000007FF8
0000000000007FF8
0000000000007FF8
0000000000007FF8
0000000000007FF8
0000000000007FF8
0000000000003FF8
0007FFFFFFFF1FF8
000FFFFFFFFF8FF8
001FFFFFFFFFC7F8
003FFFFFFFFFE3F8
007FFFFFFFFFF1F8
00FFFFFFFFFFF8F0
01FFFFFFFFFFFC60
03FFFFFFFFFFFE00
07FFFFFFFFFFFF00
07FFFFFFFFFFFF00
03FFFFFFFFFFFE00
01FFFFFFFFFFFC00
ENDCHAR
STARTCHAR T
ENCODING 84
SWIDTH 816 0
DWIDTH 81 0
BBX 56 94 10 0
BITMAP
30000000000000
78000000000000
FC000000000000
FE000000000000
FF000000000000
FF800000000000
FFC00000000000
FFE00000000000
FFF00000000000
FFF00000000000
FFF00000000000
FFF00000000000
FFF00000000000
FFF00000000000
FFF00000000000
FFF00000000000
FFF00000000000
FFF00000000000
FFF00000000000
FFF00000000000
FFF00000000000
FFF00000000000
FFF00000000000
FFF00000000000
FFF00000000000
FFF00000000000
FFF00000000000
FFF00000000000
FFF00000000000
FFF00000000000
FFF00000000000
FFF00000000000
FFF00000000000
FFF00000000000
FFF00000000000
FFF00000000000
FFF00000000000
FFF00000000000
FFE7FFFFFFFE00
FFCFFFFFFFFF00
FF9FFFFFFFFF80
FE3FFFFFFFFFC0
FC7FFFFFFFFFE0
FCFFFFFFFFFFF0
01FFFFFFFFFFF8
FCFFFFFFFFFFF0
FC7FFFFFFFFFE0
FE3FFFFFFFFFC0
FF9FFFFFFFFF80
FFCFFFFFFFFF00
FFE7FFFFFFFE00
FFF00000000000
FFF00000000000
FFF00000000000
FFF00000000000
FFF00000000000
FFF00000000000
FFF00000000000
FFF00000000000
FFF00000000000
FFF00000000000
FFF00000000000
FFF00000000000
FFF00000000000
FFF00000000000
FFF00000000000
FFF00000000000
FFF00000000000
FFF00000000000
FFF00000000000
FFF00000000000
FFF00000000000
FFF00000000000
FFF00000000000
FFF00000000000
FFF00000000000
FFF00000000000
FFF00000000000
FFF00000000000
FFF00000000000
FFF00000000000
FFE00000000000
FFC7FFFFFFFF00
FF8FFFFFFFFF80
FF1FFFFFFFFFC0
FE3FFFFFFFFFE0
FC7FFFFFFFFFF0
78FFFFFFFFFFF8
31FFFFFFFFFFFC
03FFFFFFFFFFFE
07FFFFFFFFFFFF
07FFFFFFFFFFFF
03FFFFFFFFFFFE
01FFFFFFFFFFFC
ENDCHAR
STARTCHAR U
ENCODING 85
SWIDTH 816 0
DWIDTH 81 0
BBX 61 49 10 0
BITMAP
FC00000000000000
FC000000000003F8
FE000000000007F8
FF80000000000FF8
FFC0000000001FF8
FFE0000000003FF8
FFF0000000007FF8
FFF0000000007FF8
FFF0000000007FF8
FFF0000000007FF8
FFF0000000007FF8
FFF0000000007FF8
FFF0000000007FF8
FFF0000000007FF8
FFF0000000007FF8
FFF0000000007FF8
FFF0000000007FF8
FFF0000000007FF8
FFF0000000007FF8
FFF0000000007FF8
FFF0000000007FF8
FFF0000000007FF8
FFF0000000007FF8
FFF0000000007FF8
FFF0000000007FF8
FFF0000000007FF8
FFF0000000007FF8
FFF0000000007FF8
FFF0000000007FF8
FFF0000000007FF8
FFF0000000007FF8
FFF0000000007FF8
FFF0000000007FF8
FFF0000000007FF8
FFF0000000007FF8
FFF0000000007FF8
FFE0000000003FF8
FFC7FFFFFFFF1FF8
FF8FFFFFFFFF8FF8
FF1FFFFFFFFFC7F8
FE3FFFFFFFFFE3F8
FC7FFFFFFFFFF1F8
78FFFFFFFFFFF8F0
31FFFFFFFFFFFC60
03FFFFFFFFFFFE00
07FFFFFFFFFFFF00
07FFFFFFFFFFFF00
03FFFFFFFFFFFE00
01FFFFFFFFFFFC00
ENDCHAR
STARTCHAR V
ENCODING 86
SWIDTH 816 0
DWIDTH 81 0
BBX 61 94 10 0
BITMAP
3000000000000060
78000000000000F0
FC000000000001F8
FE000000000003F8
FF000000000007F8
FF80000000000FF8
FFC0000000001FF8
FFE0000000003FF8
FFF0000000007FF8
FFF0000000007FF8
FFF0000000007FF8
FFF0000000007FF8
FFF0000000007FF8
FFF0000000007FF8
FFF0000000007FF8
FFF0000000007FF8
FFF0000000007FF8
FFF0000000007FF8
FFF0000000007FF8
FFF0000000007FF8
FFF0000000007FF8
FFF0000000007FF8
FFF0000000007FF8
FFF0000000007FF8
FFF0000000007FF8
FFF0000000007FF8
FFF0000000007FF8
FFF0000000007FF8
FFF0000000007FF8
FFF0000000007FF8
FFF0000000007FF8
FFF0000000007FF8
FFF0000000007FF8
FFF0000000007FF8
FFF0000000007FF8
FFF0000000007FF8
FFF0000000007FF8
FFF0000000007FF8
FFE0000000003FF8
FFC0000000001FF8
FF80000000000FF8
FE000000000007F8
FC000000000003F8
FC000000000001F8
0000000000000000
FC00000000000000
FC000000000003F8
FE000000000007F8
FF80000000000FF8
FFC0000000001FF8
FFE0000000003FF8
FFF0000000007FF8
FFF0000000007FF8
FFF0000000007FF8
FFF0000000007FF8
FFF0000000007FF8
FFF0000000007FF8
FFF0000000007FF8
FFF0000000007FF8
FFF0000000007FF8
FFF0000000007FF8
FFF0000000007FF8
FFF0000000007FF8
FFF0000000007FF8
FFF0000000007FF8
FFF0000000007FF8
FFF0000000007FF8
FFF0000000007FF8
FFF0000000007FF8
FFF0000000007FF8
FFF0000000007FF8
FFF0000000007FF8
FFF0000000007FF8
FFF0000000007FF8
FFF0000000007FF8
FFF0000000007FF8
FFF0000000007FF8
FFF0000000007FF8
FFF0000000007FF8
FFF0000000007FF8
FFF0000000007FF8
FFE0000000003FF8
FFC7FFFFFFFF1FF8
FF8FFFFFFFFF8FF8
FF1FFFFFFFFFC7F8
FE3FFFFFFFFFE3F8
FC7FFFFFFFFFF1F8
78FFFFFFFFFFF8F0
31FFFFFFFFFFFC60
03FFFFFFFFFFFE00
07FFFFFFFFFFFF00
07FFFFFFFFFFFF00
03FFFFFFFFFFFE00
01FFFFFFFFFFFC00
ENDCHAR
STARTCHAR W
ENCODING 87
SWIDTH 816 0
DWIDTH 81 0
BBX 61 94 10 0
BITMAP
3000000000000060
78000000000000F0
FC000000000001F8
FE000000000003F8
FF000000000007F8
FF80000000000FF8
FFC0000000001FF8
FFE0000000003FF8
FFF0000000007FF8
FFF0000000007FF8
FFF0000000007FF8
FFF0000000007FF8
FFF0000000007FF8
FFF0000000007FF8
FFF0000000007FF8
FFF0000000007FF8
FFF0000000007FF8
FFF0000000007FF8
FFF0000000007FF8
FFF0000000007FF8
FFF0000000007FF8
FFF0000000007FF8
FFF0000000007FF8
FFF0000000007FF8
FFF0000000007FF8
FFF0000000007FF8
FFF0000000007FF8
FFF0000000007FF8
FFF0000000007FF8
FFF0000000007FF8
FFF0000000007FF8
FFF0000000007FF8
FFF0000000007FF8
FFF0000000007FF8
FFF0000000007FF8
FFF0000000007FF8
FFF0000000007FF8
FFF0000000007FF8
FFE7FFFFFFFE3FF8
FFCFFFFFFFFF1FF8
FF9FFFFFFFFF8FF8
FE3FFFFFFFFFC7F8
FC7FFFFFFFFFE3F8
FCFFFFFFFFFFF1F8
01FFFFFFFFFFF800
FCFFFFFFFFFFF000
FC7FFFFFFFFFE3F8
FE3FFFFFFFFFC7F8
FF9FFFFFFFFF8FF8
FFCFFFFFFFFF1FF8
FFE7FFFFFFFE3FF8
FFF0000000007FF8
FFF0000000007FF8
FFF0000000007FF8
FFF0000000007FF8
FFF0000000007FF8
FFF0000000007FF8
FFF0000000007FF8
FFF0000000007FF8
FFF0000000007FF8
FFF0000000007FF8
FFF0000000007FF8
FFF0000000007FF8
FFF0000000007FF8
FFF0000000007FF8
FFF0000000007FF8
FFF0000000007FF8
FFF0000000007FF8
FFF0000000007FF8
FFF0000000007FF8
FFF0000000007FF8
FFF0000000007FF8
FFF0000000007FF8
FFF0000000007FF8
FFF0000000007FF8
FFF0000000007FF8
FFF0000000007FF8
FFF0000000007FF8
FFF0000000007FF8
FFF0000000007FF8
FFF0000000007FF8
FFE0000000003FF8
FFC7FFFFFFFF1FF8
FF8FFFFFFFFF8FF8
FF1FFFFFFFFFC7F8
FE3FFFFFFFFFE3F8
FC7FFFFFFFFFF1F8
78FFFFFFFFFFF8F0
31FFFFFFFFFFFC60
03FFFFFFFFFFFE00
07FFFFFFFFFFFF00
07FFFFFFFFFFFF00
03FFFFFFFFFFFE00
01FFFFFFFFFFFC00
ENDCHAR
STARTCHAR X
ENCODING 88
SWIDTH 816 0
DWIDTH 81 0
BBX 61 89 10 5
BITMAP
3000000000000060
78000000000000F0
FC000000000001F8
FE000000000003F8
FF000000000007F8
FF80000000000FF8
FFC0000000001FF8
FFE0000000003FF8
FFF0000000007FF8
FFF0000000007FF8
FFF0000000007FF8
FFF0000000007FF8
FFF0000000007FF8
FFF0000000007FF8
FFF0000000007FF8
FFF0000000007FF8
FFF0000000007FF8
FFF0000000007FF8
FFF0000000007FF8
FFF0000000007FF8
FFF0000000007FF8
FFF0000000007FF8
FFF0000000007FF8
FFF0000000007FF8
FFF0000000007FF8
FFF0000000007FF8
FFF0000000007FF8
FFF0000000007FF8
FFF0000000007FF8
FFF0000000007FF8
FFF0000000007FF8
FFF0000000007FF8
FFF0000000007FF8
FFF0000000007FF8
FFF0000000007FF8
FFF0000000007FF8
FFF0000000007FF8
FFF0000000007FF8
FFE7FFFFFFFE3FF8
FFCFFFFFFFFF1FF8
FF9FFFFFFFFF8FF8
FE3FFFFFFFFFC7F8
FC7FFFFFFFFFE3F8
FCFFFFFFFFFFF1F8
01FFFFFFFFFFF800
FCFFFFFFFFFFF000
FC7FFFFFFFFFE3F8
FE3FFFFFFFFFC7F8
FF9FFFFFFFFF8FF8
FFCFFFFFFFFF1FF8
FFE7FFFFFFFE3FF8
FFF0000000007FF8
FFF0000000007FF8
FFF0000000007FF8
FFF0000000007FF8
FFF0000000007FF8
FFF0000000007FF8
FFF0000000007FF8
FFF0000000007FF8
FFF0000000007FF8
FFF0000000007FF8
FFF0000000007FF8
FFF0000000007FF8
FFF0000000007FF8
FFF0000000007FF8
FFF0000000007FF8
FFF0000000007FF8
FFF0000000007FF8
FFF0000000007FF8
FFF0000000007FF8
FFF0000000007FF8
FFF0000000007FF8
FFF0000000007FF8
FFF0000000007FF8
FFF0000000007FF8
FFF0000000007FF8
FFF0000000007FF8
FFF0000000007FF8
FFF0000000007FF8
FFF0000000007FF8
FFF0000000007FF8
FFE0000000003FF8
FFC0000000001FF8
FF80000000000FF8
FF000000000007F8
FE000000000003F8
FC000000000001F8
78000000000000F0
3000000000000060
ENDCHAR
STARTCHAR Y
ENCODING 89
SWIDTH 816 0
DWIDTH 81 0
BBX 61 94 10 0
BITMAP
3000000000000060
78000000000000F0
FC000000000001F8
FE000000000003F8
FF000000000007F8
FF80000000000FF8
FFC0000000001FF8
FFE0000000003FF8
FFF0000000007FF8
FFF0000000007FF8
FFF0000000007FF8
FFF0000000007FF8
FFF0000000007FF8
FFF0000000007FF8
FFF0000000007FF8
FFF0000000007FF8
FFF0000000007FF8
FFF0000000007FF8
FFF0000000007FF8
FFF0000000007FF8
FFF0000000007FF8
FFF0000000007FF8
FFF0000000007FF8
FFF0000000007FF8
FFF0000000007FF8
FFF0000000007FF8
FFF0000000007FF8
FFF0000000007FF8
FFF0000000007FF8
FFF0000000007FF8
FFF0000000007FF8
FFF0000000007FF8
FFF0000000007FF8
FFF0000000007FF8
FFF0000000007FF8
FFF0000000007FF8
FFF0000000007FF8
FFF0000000007FF8
FFE7FFFFFFFE3FF8
FFCFFFFFFFFF1FF8
FF9FFFFFFFFF8FF8
FE3FFFFFFFFFC7F8
FC7FFFFFFFFFE3F8
FCFFFFFFFFFFF1F8
01FFFFFFFFFFF800
00FFFFFFFFFFF000
007FFFFFFFFFE3F8
003FFFFFFFFFC7F8
001FFFFFFFFF8FF8
000FFFFFFFFF1FF8
0007FFFFFFFE3FF8
0000000000007FF8
0000000000007FF8
0000000000007FF8
0000000000007FF8
0000000000007FF8
0000000000007FF8
0000000000007FF8
0000000000007FF8
0000000000007FF8
0000000000007FF8
0000000000007FF8
0000000000007FF8
0000000000007FF8
0000000000007FF8
0000000000007FF8
0000000000007FF8
0000000000007FF8
0000000000007FF8
0000000000007FF8
0000000000007FF8
0000000000007FF8
0000000000007FF8
0000000000007FF8
0000000000007FF8
0000000000007FF8
0000000000007FF8
0000000000007FF8
0000000000007FF8
0000000000007FF8
0000000000007FF8
0000000000003FF8
0007FFFFFFFF1FF8
000FFFFFFFFF8FF8
001FFFFFFFFFC7F8
003FFFFFFFFFE3F8
007FFFFFFFFFF1F8
00FFFFFFFFFFF8F0
01FFFFFFFFFFFC60
03FFFFFFFFFFFE00
07FFFFFFFFFFFF00
07FFFFFFFFFFFF00
03FFFFFFFFFFFE00
01FFFFFFFFFFFC00
ENDCHAR
STARTCHAR Z
ENCODING 90
SWIDTH 816 0
DWIDTH 81 0
BBX 61 99 10 0
BITMAP
01FFFFFFFFFFFC00
03FFFFFFFFFFFE00
07FFFFFFFFFFFF00
07FFFFFFFFFFFF00
03FFFFFFFFFFFE00
01FFFFFFFFFFFC60
00FFFFFFFFFFF8F0
007FFFFFFFFFF1F8
003FFFFFFFFFE3F8
001FFFFFFFFFC7F8
000FFFFFFFFF8FF8
0007FFFFFFFF1FF8
0000000000003FF8
0000000000007FF8
0000000000007FF8
0000000000007FF8
0000000000007FF8
0000000000007FF8
0000000000007FF8
0000000000007FF8
0000000000007FF8
0000000000007FF8
0000000000007FF8
0000000000007FF8
0000000000007FF8
0000000000007FF8
0000000000007FF8
0000000000007FF8
0000000000007FF8
0000000000007FF8
0000000000007FF8
0000000000007FF8
0000000000007FF8
0000000000007FF8
0000000000007FF8
0000000000007FF8
0000000000007FF8
0000000000007FF8
0000000000007FF8
0000000000007FF8
0000000000007FF8
0000000000007FF8
0000000000007FF8
0000000000003FF8
0000000000001FF8
0000000000000FF8
00000000000007F8
00000000000003F8
00000000000001F8
0000000000000000
FC00000000000000
FC00000000000000
FE00000000000000
FF80000000000000
FFC0000000000000
FFE0000000000000
FFF0000000000000
FFF0000000000000
FFF0000000000000
FFF0000000000000
FFF0000000000000
FFF0000000000000
FFF0000000000000
FFF0000000000000
FFF0000000000000
FFF0000000000000
FFF0000000000000
FFF0000000000000
FFF0000000000000
FFF0000000000000
FFF0000000000000
FFF0000000000000
FFF0000000000000
FFF0000000000000
FFF0000000000000
FFF0000000000000
FFF0000000000000
FFF0000000000000
FFF0000000000000
FFF0000000000000
FFF0000000000000
FFF0000000000000
FFF0000000000000
FFF0000000000000
FFF0000000000000
FFF0000000000000
FFE0000000000000
FFC7FFFFFFFF0000
FF8FFFFFFFFF8000
FF1FFFFFFFFFC000
FE3FFFFFFFFFE000
FC7FFFFFFFFFF000
78FFFFFFFFFFF800
31FFFFFFFFFFFC00
03FFFFFFFFFFFE00
07FFFFFFFFFFFF00
07FFFFFFFFFFFF00
03FFFFFFFFFFFE00
01FFFFFFFFFFFC00
ENDCHAR
STARTCHAR underscore
ENCODING 95
SWIDTH 816 0
DWIDTH 81 0
BBX 51 12 15 0
BITMAP
00FFFFFFFFE000
01FFFFFFFFF000
03FFFFFFFFF800
07FFFFFFFFFC00
0FFFFFFFFFFE00
1FFFFFFFFFFF00
3FFFFFFFFFFF80
7FFFFFFFFFFFC0
FFFFFFFFFFFFE0
FFFFFFFFFFFFE0
7FFFFFFFFFFFC0
3FFFFFFFFFFF80
ENDCHAR
STARTCHAR a
ENCODING 97
SWIDTH 816 0
DWIDTH 81 0
BBX 61 94 10 5
BITMAP
01FFFFFFFFFFFC00
03FFFFFFFFFFFE00
07FFFFFFFFFFFF00
07FFFFFFFFFFFF00
03FFFFFFFFFFFE00
31FFFFFFFFFFFC60
78FFFFFFFFFFF8F0
FC7FFFFFFFFFF1F8
FE3FFFFFFFFFE3F8
FF1FFFFFFFFFC7F8
FF8FFFFFFFFF8FF8
FFC7FFFFFFFF1FF8
FFE0000000003FF8
FFF0000000007FF8
FFF0000000007FF8
FFF0000000007FF8
FFF0000000007FF8
FFF0000000007FF8
FFF0000000007FF8
FFF0000000007FF8
FFF0000000007FF8
FFF0000000007FF8
FFF0000000007FF8
FFF0000000007FF8
FFF0000000007FF8
FFF0000000007FF8
FFF0000000007FF8
FFF0000000007FF8
FFF0000000007FF8
FFF0000000007FF8
FFF0000000007FF8
FFF0000000007FF8
FFF0000000007FF8
FFF0000000007FF8
FFF0000000007FF8
FFF0000000007FF8
FFF0000000007FF8
FFF0000000007FF8
FFF0000000007FF8
FFF0000000007FF8
FFF0000000007FF8
FFF0000000007FF8
FFF0000000007FF8
FFE7FFFFFFFE3FF8
FFCFFFFFFFFF1FF8
FF9FFFFFFFFF8FF8
FE3FFFFFFFFFC7F8
FC7FFFFFFFFFE3F8
FCFFFFFFFFFFF1F8
01FFFFFFFFFFF800
FCFFFFFFFFFFF000
FC7FFFFFFFFFE3F8
FE3FFFFFFFFFC7F8
FF9FFFFFFFFF8FF8
FFCFFFFFFFFF1FF8
FFE7FFFFFFFE3FF8
FFF0000000007FF8
FFF0000000007FF8
FFF0000000007FF8
FFF0000000007FF8
FFF0000000007FF8
FFF0000000007FF8
FFF0000000007FF8
FFF0000000007FF8
FFF0000000007FF8
FFF0000000007FF8
FFF0000000007FF8
FFF0000000007FF8
FFF0000000007FF8
FFF0000000007FF8
FFF0000000007FF8
FFF0000000007FF8
FFF0000000007FF8
FFF0000000007FF8
FFF0000000007FF8
FFF0000000007FF8
FFF0000000007FF8
FFF0000000007FF8
FFF0000000007FF8
FFF0000000007FF8
FFF0000000007FF8
FFF0000000007FF8
FFF0000000007FF8
FFF0000000007FF8
FFF0000000007FF8
FFF0000000007FF8
FFE0000000003FF8
FFC0000000001FF8
FF80000000000FF8
FF000000000007F8
FE000000000003F8
FC000000000001F8
78000000000000F0
3000000000000060
ENDCHAR
STARTCHAR b
ENCODING 98
SWIDTH 816 0
DWIDTH 81 0
BBX 61 94 10 0
BITMAP
3000000000000000
7800000000000000
FC00000000000000
FE00000000000000
FF00000000000000
FF80000000000000
FFC0000000000000
FFE0000000000000
FFF0000000000000
FFF0000000000000
FFF0000000000000
FFF0000000000000
FFF0000000000000
FFF0000000000000
FFF0000000000000
FFF0000000000000
FFF0000000000000
FFF0000000000000
FFF0000000000000
FFF0000000000000
FFF0000000000000
FFF0000000000000
FFF0000000000000
FFF0000000000000
FFF0000000000000
FFF0000000000000
FFF0000000000000
FFF0000000000000
FFF0000000000000
FFF0000000000000
FFF0000000000000
FFF0000000000000
FFF0000000000000
FFF0000000000000
FFF0000000000000
FFF0000000000000
FFF0000000000000
FFF0000000000000
FFE7FFFFFFFE0000
FFCFFFFFFFFF0000
FF9FFFFFFFFF8000
FE3FFFFFFFFFC000
FC7FFFFFFFFFE000
FCFFFFFFFFFFF000
01FFFFFFFFFFF800
FCFFFFFFFFFFF000
FC7FFFFFFFFFE3F8
FE3FFFFFFFFFC7F8
FF9FFFFFFFFF8FF8
FFCFFFFFFFFF1FF8
FFE7FFFFFFFE3FF8
FFF0000000007FF8
FFF0000000007FF8
FFF0000000007FF8
FFF0000000007FF8
FFF0000000007FF8
FFF0000000007FF8
FFF0000000007FF8
FFF0000000007FF8
FFF0000000007FF8
FFF0000000007FF8
FFF0000000007FF8
FFF0000000007FF8
FFF0000000007FF8
FFF0000000007FF8
FFF0000000007FF8
FFF0000000007FF8
FFF0000000007FF8
FFF0000000007FF8
FFF0000000007FF8
FFF0000000007FF8
FFF0000000007FF8
FFF0000000007FF8
FFF0000000007FF8
FFF0000000007FF8
FFF0000000007FF8
FFF0000000007FF8
FFF0000000007FF8
FFF0000000007FF8
FFF0000000007FF8
FFF0000000007FF8
FFE0000000003FF8
FFC7FFFFFFFF1FF8
FF8FFFFFFFFF8FF8
FF1FFFFFFFFFC7F8
FE3FFFFFFFFFE3F8
FC7FFFFFFFFFF1F8
78FFFFFFFFFFF8F0
31FFFFFFFFFFFC60
03FFFFFFFFFFFE00
07FFFFFFFFFFFF00
07FFFFFFFFFFFF00
03FFFFFFFFFFFE00
01FFFFFFFFFFFC00
ENDCHAR
STARTCHAR c
ENCODING 99
SWIDTH 816 0
DWIDTH 81 0
BBX 56 56 10 0
BITMAP
0007FFFFFFFE00
000FFFFFFFFF00
001FFFFFFFFF80
003FFFFFFFFFC0
007FFFFFFFFFE0
00FFFFFFFFFFF0
01FFFFFFFFFFF8
FCFFFFFFFFFFF0
FC7FFFFFFFFFE0
FE3FFFFFFFFFC0
FF9FFFFFFFFF80
FFCFFFFFFFFF00
FFE7FFFFFFFE00
FFF00000000000
FFF00000000000
FFF00000000000
FFF00000000000
FFF00000000000
FFF00000000000
FFF00000000000
FFF00000000000
FFF00000000000
FFF00000000000
FFF00000000000
FFF00000000000
FFF00000000000
FFF00000000000
FFF00000000000
FFF00000000000
FFF00000000000
FFF00000000000
FFF00000000000
FFF00000000000
FFF00000000000
FFF00000000000
FFF00000000000
FFF00000000000
FFF00000000000
FFF00000000000
FFF00000000000
FFF00000000000
FFF00000000000
FFF00000000000
FFE00000000000
FFC7FFFFFFFF00
FF8FFFFFFFFF80
FF1FFFFFFFFFC0
FE3FFFFFFFFFE0
FC7FFFFFFFFFF0
78FFFFFFFFFFF8
31FFFFFFFFFFFC
03FFFFFFFFFFFE
07FFFFFFFFFFFF
07FFFFFFFFFFFF
03FFFFFFFFFFFE
01FFFFFFFFFFFC
ENDCHAR
STARTCHAR d
ENCODING 100
SWIDTH 816 0
DWIDTH 81 0
BBX 61 94 10 0
BITMAP
0000000000000060
00000000000000F0
00000000000001F8
00000000000003F8
00000000000007F8
0000000000000FF8
0000000000001FF8
0000000000003FF8
0000000000007FF8
0000000000007FF8
0000000000007FF8
0000000000007FF8
0000000000007FF8
0000000000007FF8
0000000000007FF8
0000000000007FF8
0000000000007FF8
0000000000007FF8
0000000000007FF8
0000000000007FF8
0000000000007FF8
0000000000007FF8
0000000000007FF8
0000000000007FF8
0000000000007FF8
0000000000007FF8
0000000000007FF8
0000000000007FF8
0000000000007FF8
0000000000007FF8
0000000000007FF8
0000000000007FF8
0000000000007FF8
0000000000007FF8
0000000000007FF8
0000000000007FF8
0000000000007FF8
0000000000007FF8
0007FFFFFFFE3FF8
000FFFFFFFFF1FF8
001FFFFFFFFF8FF8
003FFFFFFFFFC7F8
007FFFFFFFFFE3F8
00FFFFFFFFFFF1F8
01FFFFFFFFFFF800
FCFFFFFFFFFFF000
FC7FFFFFFFFFE3F8
FE3FFFFFFFFFC7F8
FF9FFFFFFFFF8FF8
FFCFFFFFFFFF1FF8
FFE7FFFFFFFE3FF8
FFF0000000007FF8
FFF0000000007FF8
FFF0000000007FF8
FFF0000000007FF8
FFF0000000007FF8
FFF0000000007FF8
FFF0000000007FF8
FFF0000000007FF8
FFF0000000007FF8
FFF0000000007FF8
FFF0000000007FF8
FFF0000000007FF8
FFF0000000007FF8
FFF0000000007FF8
FFF0000000007FF8
FFF0000000007FF8
FFF0000000007FF8
FFF0000000007FF8
FFF0000000007FF8
FFF0000000007FF8
FFF0000000007FF8
FFF0000000007FF8
FFF0000000007FF8
FFF0000000007FF8
FFF0000000007FF8
FFF0000000007FF8
FFF0000000007FF8
FFF0000000007FF8
FFF0000000007FF8
FFF0000000007FF8
FFE0000000003FF8
FFC7FFFFFFFF1FF8
FF8FFFFFFFFF8FF8
FF1FFFFFFFFFC7F8
FE3FFFFFFFFFE3F8
FC7FFFFFFFFFF1F8
78FFFFFFFFFFF8F0
31FFFFFFFFFFFC60
03FFFFFFFFFFFE00
07FFFFFFFFFFFF00
07FFFFFFFFFFFF00
03FFFFFFFFFFFE00
01FFFFFFFFFFFC00
ENDCHAR
STARTCHAR e
ENCODING 101
SWIDTH 816 0
DWIDTH 81 0
BBX 56 99 10 0
BITMAP
01FFFFFFFFFFFC
03FFFFFFFFFFFE
07FFFFFFFFFFFF
07FFFFFFFFFFFF
03FFFFFFFFFFFE
31FFFFFFFFFFFC
78FFFFFFFFFFF8
FC7FFFFFFFFFF0
FE3FFFFFFFFFE0
FF1FFFFFFFFFC0
FF8FFFFFFFFF80
FFC7FFFFFFFF00
FFE00000000000
FFF00000000000
FFF00000000000
FFF00000000000
FFF00000000000
FFF00000000000
FFF00000000000
FFF00000000000
FFF00000000000
FFF00000000000
FFF00000000000
FFF00000000000
FFF00000000000
FFF00000000000
FFF00000000000
FFF00000000000
FFF00000000000
FFF00000000000
FFF00000000000
FFF00000000000
FFF00000000000
FFF00000000000
FFF00000000000
FFF00000000000
FFF00000000000
FFF00000000000
FFF00000000000
FFF00000000000
FFF00000000000
FFF00000000000
FFF00000000000
FFE7FFFFFFFE00
FFCFFFFFFFFF00
FF9FFFFFFFFF80
FE3FFFFFFFFFC0
FC7FFFFFFFFFE0
FCFFFFFFFFFFF0
01FFFFFFFFFFF8
FCFFFFFFFFFFF0
FC7FFFFFFFFFE0
FE3FFFFFFFFFC0
FF9FFFFFFFFF80
FFCFFFFFFFFF00
FFE7FFFFFFFE00
FFF00000000000
FFF00000000000
FFF00000000000
FFF00000000000
FFF00000000000
FFF00000000000
FFF00000000000
FFF00000000000
FFF00000000000
FFF00000000000
FFF00000000000
FFF00000000000
FFF00000000000
FFF00000000000
FFF00000000000
FFF00000000000
FFF00000000000
FFF00000000000
FFF00000000000
FFF00000000000
FFF00000000000
FFF00000000000
FFF00000000000
FFF00000000000
FFF00000000000
FFF00000000000
FFF00000000000
FFF00000000000
FFF00000000000
FFF00000000000
FFE00000000000
FFC7FFFFFFFF00
FF8FFFFFFFFF80
FF1FFFFFFFFFC0
FE3FFFFFFFFFE0
FC7FFFFFFFFFF0
78FFFFFFFFFFF8
31FFFFFFFFFFFC
03FFFFFFFFFFFE
07FFFFFFFFFFFF
07FFFFFFFFFFFF
03FFFFFFFFFFFE
01FFFFFFFFFFFC
ENDCHAR
STARTCHAR f
ENCODING 102
SWIDTH 816 0
DWIDTH 81 0
BBX 56 94 10 5
BITMAP
01FFFFFFFFFFFC
03FFFFFFFFFFFE
07FFFFFFFFFFFF
07FFFFFFFFFFFF
03FFFFFFFFFFFE
31FFFFFFFFFFFC
78FFFFFFFFFFF8
FC7FFFFFFFFFF0
FE3FFFFFFFFFE0
FF1FFFFFFFFFC0
FF8FFFFFFFFF80
FFC7FFFFFFFF00
FFE00000000000
FFF00000000000
FFF00000000000
FFF00000000000
FFF00000000000
FFF00000000000
FFF00000000000
FFF00000000000
FFF00000000000
FFF00000000000
FFF00000000000
FFF00000000000
FFF00000000000
FFF00000000000
FFF00000000000
FFF00000000000
FFF00000000000
FFF00000000000
FFF00000000000
FFF00000000000
FFF00000000000
FFF00000000000
FFF00000000000
FFF00000000000
FFF00000000000
FFF00000000000
FFF00000000000
FFF00000000000
FFF00000000000
FFF00000000000
FFF00000000000
FFE7FFFFFFFE00
FFCFFFFFFFFF00
FF9FFFFFFFFF80
FE3FFFFFFFFFC0
FC7FFFFFFFFFE0
FCFFFFFFFFFFF0
01FFFFFFFFFFF8
FCFFFFFFFFFFF0
FC7FFFFFFFFFE0
FE3FFFFFFFFFC0
FF9FFFFFFFFF80
FFCFFFFFFFFF00
FFE7FFFFFFFE00
FFF00000000000
FFF00000000000
FFF00000000000
FFF00000000000
FFF00000000000
FFF00000000000
FFF00000000000
FFF00000000000
FFF00000000000
FFF00000000000
FFF00000000000
FFF00000000000
FFF00000000000
FFF00000000000
FFF00000000000
FFF00000000000
FFF00000000000
FFF00000000000
FFF00000000000
FFF00000000000
FFF00000000000
FFF00000000000
FFF00000000000
FFF00000000000
FFF00000000000
FFF00000000000
FFF00000000000
FFF00000000000
FFF00000000000
FFF00000000000
FFE00000000000
FFC00000000000
FF800000000000
FF000000000000
FE000000000000
FC000000000000
78000000000000
30000000000000
ENDCHAR
STARTCHAR g
ENCODING 103
SWIDTH 816 0
DWIDTH 81 0
BBX 61 99 10 0
BITMAP
01FFFFFFFFFFFC00
03FFFFFFFFFFFE00
07FFFFFFFFFFFF00
07FFFFFFFFFFFF00
03FFFFFFFFFFFE00
31FFFFFFFFFFFC00
78FFFFFFFFFFF800
FC7FFFFFFFFFF000
FE3FFFFFFFFFE000
FF1FFFFFFFFFC000
FF8FFFFFFFFF8000
FFC7FFFFFFFF0000
FFE0000000000000
FFF0000000000000
FFF0000000000000
FFF0000000000000
FFF0000000000000
FFF0000000000000
FFF0000000000000
FFF0000000000000
FFF0000000000000
FFF0000000000000
FFF0000000000000
FFF0000000000000
FFF0000000000000
FFF0000000000000
FFF0000000000000
FFF0000000000000
FFF0000000000000
FFF0000000000000
FFF0000000000000
FFF0000000000000
FFF0000000000000
FFF0000000000000
FFF0000000000000
FFF0000000000000
FFF0000000000000
FFF0000000000000
FFF0000000000000
FFF0000000000000
FFF0000000000000
FFF0000000000000
FFF0000000000000
FFE0000000000000
FFC0000000000000
FF80000000000000
FE00000000000000
FC00000000000000
FC00000000000000
0000000000000000
FC00000000000000
FC000000000003F8
FE000000000007F8
FF80000000000FF8
FFC0000000001FF8
FFE0000000003FF8
FFF0000000007FF8
FFF0000000007FF8
FFF0000000007FF8
FFF0000000007FF8
FFF0000000007FF8
FFF0000000007FF8
FFF0000000007FF8
FFF0000000007FF8
FFF0000000007FF8
FFF0000000007FF8
FFF0000000007FF8
FFF0000000007FF8
FFF0000000007FF8
FFF0000000007FF8
FFF0000000007FF8
FFF0000000007FF8
FFF0000000007FF8
FFF0000000007FF8
FFF0000000007FF8
FFF0000000007FF8
FFF0000000007FF8
FFF0000000007FF8
FFF0000000007FF8
FFF0000000007FF8
FFF0000000007FF8
FFF0000000007FF8
FFF0000000007FF8
FFF0000000007FF8
FFF0000000007FF8
FFF0000000007FF8
FFE0000000003FF8
FFC7FFFFFFFF1FF8
FF8FFFFFFFFF8FF8
FF1FFFFFFFFFC7F8
FE3FFFFFFFFFE3F8
FC7FFFFFFFFFF1F8
78FFFFFFFFFFF8F0
31FFFFFFFFFFFC60
03FFFFFFFFFFFE00
07FFFFFFFFFFFF00
07FFFFFFFFFFFF00
03FFFFFFFFFFFE00
01FFFFFFFFFFFC00
ENDCHAR
STARTCHAR h
ENCODING 104
SWIDTH 816 0
DWIDTH 81 0
BBX 61 89 10 5
BITMAP
3000000000000000
7800000000000000
FC00000000000000
FE00000000000000
FF00000000000000
FF80000000000000
FFC0000000000000
FFE0000000000000
FFF0000000000000
FFF0000000000000
FFF0000000000000
FFF0000000000000
FFF0000000000000
FFF0000000000000
FFF0000000000000
FFF0000000000000
FFF0000000000000
FFF0000000000000
FFF0000000000000
FFF0000000000000
FFF0000000000000
FFF0000000000000
FFF0000000000000
FFF0000000000000
FFF0000000000000
FFF0000000000000
FFF0000000000000
FFF0000000000000
FFF0000000000000
FFF0000000000000
FFF0000000000000
FFF0000000000000
FFF0000000000000
FFF0000000000000
FFF0000000000000
FFF0000000000000
FFF0000000000000
FFF0000000000000
FFE7FFFFFFFE0000
FFCFFFFFFFFF0000
FF9FFFFFFFFF8000
FE3FFFFFFFFFC000
FC7FFFFFFFFFE000
FCFFFFFFFFFFF000
01FFFFFFFFFFF800
FCFFFFFFFFFFF000
FC7FFFFFFFFFE3F8
FE3FFFFFFFFFC7F8
FF9FFFFFFFFF8FF8
FFCFFFFFFFFF1FF8
FFE7FFFFFFFE3FF8
FFF0000000007FF8
FFF0000000007FF8
FFF0000000007FF8
FFF0000000007FF8
FFF0000000007FF8
FFF0000000007FF8
FFF0000000007FF8
FFF0000000007FF8
FFF0000000007FF8
FFF0000000007FF8
FFF0000000007FF8
FFF0000000007FF8
FFF0000000007FF8
FFF0000000007FF8
FFF0000000007FF8
FFF0000000007FF8
FFF0000000007FF8
FFF0000000007FF8
FFF0000000007FF8
FFF0000000007FF8
FFF0000000007FF8
FFF0000000007FF8
FFF0000000007FF8
FFF0000000007FF8
FFF0000000007FF8
FFF0000000007FF8
FFF0000000007FF8
FFF0000000007FF8
FFF0000000007FF8
FFF0000000007FF8
FFE0000000003FF8
FFC0000000001FF8
FF80000000000FF8
FF000000000007F8
FE000000000003F8
FC000000000001F8
78000000000000F0
3000000000000060
ENDCHAR
STARTCHAR i
ENCODING 105
SWIDTH 816 0
DWIDTH 81 0
BBX 12 43 59 5
BITMAP
07F0
0FF0
1FF0
3FF0
7FF0
FFF0
FFF0
FFF0
FFF0
FFF0
FFF0
FFF0
FFF0
FFF0
FFF0
FFF0
FFF0
FFF0
FFF0
FFF0
FFF0
FFF0
FFF0
FFF0
FFF0
FFF0
FFF0
FFF0
FFF0
FFF0
FFF0
FFF0
FFF0
FFF0
FFF0
7FF0
3FF0
1FF0
0FF0
07F0
03F0
01E0
00C0
ENDCHAR
STARTCHAR j
ENCODING 106
SWIDTH 816 0
DWIDTH 81 0
BBX 61 94 10 0
BITMAP
0000000000000060
00000000000000F0
00000000000001F8
00000000000003F8
00000000000007F8
0000000000000FF8
0000000000001FF8
0000000000003FF8
0000000000007FF8
0000000000007FF8
0000000000007FF8
0000000000007FF8
0000000000007FF8
0000000000007FF8
0000000000007FF8
0000000000007FF8
0000000000007FF8
0000000000007FF8
0000000000007FF8
0000000000007FF8
0000000000007FF8
0000000000007FF8
0000000000007FF8
0000000000007FF8
0000000000007FF8
0000000000007FF8
0000000000007FF8
0000000000007FF8
0000000000007FF8
0000000000007FF8
0000000000007FF8
0000000000007FF8
0000000000007FF8
0000000000007FF8
0000000000007FF8
0000000000007FF8
0000000000007FF8
0000000000007FF8
0000000000003FF8
0000000000001FF8
0000000000000FF8
00000000000007F8
00000000000003F8
00000000000001F8
0000000000000000
FC00000000000000
FC000000000003F8
FE000000000007F8
FF80000000000FF8
FFC0000000001FF8
FFE0000000003FF8
FFF0000000007FF8
FFF0000000007FF8
FFF0000000007FF8
FFF0000000007FF8
FFF0000000007FF8
FFF0000000007FF8
FFF0000000007FF8
FFF0000000007FF8
FFF0000000007FF8
FFF0000000007FF8
FFF0000000007FF8
FFF0000000007FF8
FFF0000000007FF8
FFF0000000007FF8
FFF0000000007FF8
FFF0000000007FF8
FFF0000000007FF8
FFF0000000007FF8
FFF0000000007FF8
FFF0000000007FF8
FFF0000000007FF8
FFF0000000007FF8
FFF0000000007FF8
FFF0000000007FF8
FFF0000000007FF8
FFF0000000007FF8
FFF0000000007FF8
FFF0000000007FF8
FFF0000000007FF8
FFF0000000007FF8
FFE0000000003FF8
FFC7FFFFFFFF1FF8
FF8FFFFFFFFF8FF8
FF1FFFFFFFFFC7F8
FE3FFFFFFFFFE3F8
FC7FFFFFFFFFF1F8
78FFFFFFFFFFF8F0
31FFFFFFFFFFFC60
03FFFFFFFFFFFE00
07FFFFFFFFFFFF00
07FFFFFFFFFFFF00
03FFFFFFFFFFFE00
01FFFFFFFFFFFC00
ENDCHAR
STARTCHAR k
ENCODING 107
SWIDTH 816 0
DWIDTH 81 0
BBX 61 94 10 5
BITMAP
01FFFFFFFFFFFC00
03FFFFFFFFFFFE00
07FFFFFFFFFFFF00
07FFFFFFFFFFFF00
03FFFFFFFFFFFE00
31FFFFFFFFFFFC00
78FFFFFFFFFFF800
FC7FFFFFFFFFF000
FE3FFFFFFFFFE000
FF1FFFFFFFFFC000
FF8FFFFFFFFF8000
FFC7FFFFFFFF0000
FFE0000000000000
FFF0000000000000
FFF0000000000000
FFF0000000000000
FFF0000000000000
FFF0000000000000
FFF0000000000000
FFF0000000000000
FFF0000000000000
FFF0000000000000
FFF0000000000000
FFF0000000000000
FFF0000000000000
FFF0000000000000
FFF0000000000000
FFF0000000000000
FFF0000000000000
FFF0000000000000
FFF0000000000000
FFF0000000000000
FFF0000000000000
FFF0000000000000
FFF0000000000000
FFF0000000000000
FFF0000000000000
FFF0000000000000
FFF0000000000000
FFF0000000000000
FFF0000000000000
FFF0000000000000
FFF0000000000000
FFE7FFFFFFFE0000
FFCFFFFFFFFF0000
FF9FFFFFFFFF8000
FE3FFFFFFFFFC000
FC7FFFFFFFFFE000
FCFFFFFFFFFFF000
01FFFFFFFFFFF800
FCFFFFFFFFFFF000
FC7FFFFFFFFFE3F8
FE3FFFFFFFFFC7F8
FF9FFFFFFFFF8FF8
FFCFFFFFFFFF1FF8
FFE7FFFFFFFE3FF8
FFF0000000007FF8
FFF0000000007FF8
FFF0000000007FF8
FFF0000000007FF8
FFF0000000007FF8
FFF0000000007FF8
FFF0000000007FF8
FFF0000000007FF8
FFF0000000007FF8
FFF0000000007FF8
FFF0000000007FF8
FFF0000000007FF8
FFF0000000007FF8
FFF0000000007FF8
FFF0000000007FF8
FFF0000000007FF8
FFF0000000007FF8
FFF0000000007FF8
FFF0000000007FF8
FFF0000000007FF8
FFF0000000007FF8
FFF0000000007FF8
FFF0000000007FF8
FFF0000000007FF8
FFF0000000007FF8
FFF0000000007FF8
FFF0000000007FF8
FFF0000000007FF8
FFF0000000007FF8
FFF0000000007FF8
FFE0000000003FF8
FFC0000000001FF8
FF80000000000FF8
FF000000000007F8
FE000000000003F8
FC000000000001F8
78000000000000F0
3000000000000060
ENDCHAR
STARTCHAR l
ENCODING 108
SWIDTH 816 0
DWIDTH 81 0
BBX 56 94 10 0
BITMAP
30000000000000
78000000000000
FC000000000000
FE000000000000
FF000000000000
FF800000000000
FFC00000000000
FFE00000000000
FFF00000000000
FFF00000000000
FFF00000000000
FFF00000000000
FFF00000000000
FFF00000000000
FFF00000000000
FFF00000000000
FFF00000000000
FFF00000000000
FFF00000000000
FFF00000000000
FFF00000000000
FFF00000000000
FFF00000000000
FFF00000000000
FFF00000000000
FFF00000000000
FFF00000000000
FFF00000000000
FFF00000000000
FFF00000000000
FFF00000000000
FFF00000000000
FFF00000000000
FFF00000000000
FFF00000000000
FFF00000000000
FFF00000000000
FFF00000000000
FFE00000000000
FFC00000000000
FF800000000000
FE000000000000
FC000000000000
FC000000000000
00000000000000
FC000000000000
FC000000000000
FE000000000000
FF800000000000
FFC00000000000
FFE00000000000
FFF00000000000
FFF00000000000
FFF00000000000
FFF00000000000
FFF00000000000
FFF00000000000
FFF00000000000
FFF00000000000
FFF00000000000
FFF00000000000
FFF00000000000
FFF00000000000
FFF00000000000
FFF00000000000
FFF00000000000
FFF00000000000
FFF00000000000
FFF00000000000
FFF00000000000
FFF00000000000
FFF00000000000
FFF00000000000
FFF00000000000
FFF00000000000
FFF00000000000
FFF00000000000
FFF00000000000
FFF00000000000
FFF00000000000
FFF00000000000
FFE00000000000
FFC7FFFFFFFF00
FF8FFFFFFFFF80
FF1FFFFFFFFFC0
FE3FFFFFFFFFE0
FC7FFFFFFFFFF0
78FFFFFFFFFFF8
31FFFFFFFFFFFC
03FFFFFFFFFFFE
07FFFFFFFFFFFF
07FFFFFFFFFFFF
03FFFFFFFFFFFE
01FFFFFFFFFFFC
ENDCHAR
STARTCHAR m
ENCODING 109
SWIDTH 816 0
DWIDTH 81 0
BBX 61 94 10 5
BITMAP
01FFFFFFFFFFFC00
03FFFFFFFFFFFE00
07FFFFFFFFFFFF00
07FFFFFFFFFFFF00
03FFFFFFFFFFFE00
31FFFFFFFFFFFC60
78FFFFFFFFFFF8F0
FC7FFFFFFFFFF1F8
FE3FFFFFFFFFE3F8
FF1FFFFFFFFFC7F8
FF8FFFFFFFFF8FF8
FFC7FFFFFFFF1FF8
FFE0000000003FF8
FFF0000000007FF8
FFF0000000007FF8
FFF0000000007FF8
FFF0000000007FF8
FFF0000000007FF8
FFF0000000007FF8
FFF0000000007FF8
FFF0000000007FF8
FFF0000000007FF8
FFF0000000007FF8
FFF0000000007FF8
FFF0000000007FF8
FFF0000000007FF8
FFF0000000007FF8
FFF0000000007FF8
FFF0000000007FF8
FFF0000000007FF8
FFF0000000007FF8
FFF0000000007FF8
FFF0000000007FF8
FFF0000000007FF8
FFF0000000007FF8
FFF0000000007FF8
FFF0000000007FF8
FFF0000000007FF8
FFF0000000007FF8
FFF0000000007FF8
FFF0000000007FF8
FFF0000000007FF8
FFF0000000007FF8
FFE0000000003FF8
FFC0000000001FF8
FF80000000000FF8
FE000000000007F8
FC000000000003F8
FC000000000001F8
0000000000000000
FC00000000000000
FC000000000003F8
FE000000000007F8
FF80000000000FF8
FFC0000000001FF8
FFE0000000003FF8
FFF0000000007FF8
FFF0000000007FF8
FFF0000000007FF8
FFF0000000007FF8
FFF0000000007FF8
FFF0000000007FF8
FFF0000000007FF8
FFF0000000007FF8
FFF0000000007FF8
FFF0000000007FF8
FFF0000000007FF8
FFF0000000007FF8
FFF0000000007FF8
FFF0000000007FF8
FFF0000000007FF8
FFF0000000007FF8
FFF0000000007FF8
FFF0000000007FF8
FFF0000000007FF8
FFF0000000007FF8
FFF0000000007FF8
FFF0000000007FF8
FFF0000000007FF8
FFF0000000007FF8
FFF0000000007FF8
FFF0000000007FF8
FFF0000000007FF8
FFF0000000007FF8
FFF0000000007FF8
FFF0000000007FF8
FFE0000000003FF8
FFC0000000001FF8
FF80000000000FF8
FF000000000007F8
FE000000000003F8
FC000000000001F8
78000000000000F0
3000000000000060
ENDCHAR
STARTCHAR n
ENCODING 110
SWIDTH 816 0
DWIDTH 81 0
BBX 61 51 10 5
BITMAP
0007FFFFFFFE0000
000FFFFFFFFF0000
001FFFFFFFFF8000
003FFFFFFFFFC000
007FFFFFFFFFE000
00FFFFFFFFFFF000
01FFFFFFFFFFF800
FCFFFFFFFFFFF000
FC7FFFFFFFFFE3F8
FE3FFFFFFFFFC7F8
FF9FFFFFFFFF8FF8
FFCFFFFFFFFF1FF8
FFE7FFFFFFFE3FF8
FFF0000000007FF8
FFF0000000007FF8
FFF0000000007FF8
FFF0000000007FF8
FFF0000000007FF8
FFF0000000007FF8
FFF0000000007FF8
FFF0000000007FF8
FFF0000000007FF8
FFF0000000007FF8
FFF0000000007FF8
FFF0000000007FF8
FFF0000000007FF8
FFF0000000007FF8
FFF0000000007FF8
FFF0000000007FF8
FFF0000000007FF8
FFF0000000007FF8
FFF0000000007FF8
FFF0000000007FF8
FFF0000000007FF8
FFF0000000007FF8
FFF0000000007FF8
FFF0000000007FF8
FFF0000000007FF8
FFF0000000007FF8
FFF0000000007FF8
FFF0000000007FF8
FFF0000000007FF8
FFF0000000007FF8
FFE0000000003FF8
FFC0000000001FF8
FF80000000000FF8
FF000000000007F8
FE000000000003F8
FC000000000001F8
78000000000000F0
3000000000000060
ENDCHAR
STARTCHAR o
ENCODING 111
SWIDTH 816 0
DWIDTH 81 0
BBX 61 56 10 0
BITMAP
0007FFFFFFFE0000
000FFFFFFFFF0000
001FFFFFFFFF8000
003FFFFFFFFFC000
007FFFFFFFFFE000
00FFFFFFFFFFF000
01FFFFFFFFFFF800
FCFFFFFFFFFFF000
FC7FFFFFFFFFE3F8
FE3FFFFFFFFFC7F8
FF9FFFFFFFFF8FF8
FFCFFFFFFFFF1FF8
FFE7FFFFFFFE3FF8
FFF0000000007FF8
FFF0000000007FF8
FFF0000000007FF8
FFF0000000007FF8
FFF0000000007FF8
FFF0000000007FF8
FFF0000000007FF8
FFF0000000007FF8
FFF0000000007FF8
FFF0000000007FF8
FFF0000000007FF8
FFF0000000007FF8
FFF0000000007FF8
FFF0000000007FF8
FFF0000000007FF8
FFF0000000007FF8
FFF0000000007FF8
FFF0000000007FF8
FFF0000000007FF8
FFF0000000007FF8
FFF0000000007FF8
FFF0000000007FF8
FFF0000000007FF8
FFF0000000007FF8
FFF0000000007FF8
FFF0000000007FF8
FFF0000000007FF8
FFF0000000007FF8
FFF0000000007FF8
FFF0000000007FF8
FFE0000000003FF8
FFC7FFFFFFFF1FF8
FF8FFFFFFFFF8FF8
FF1FFFFFFFFFC7F8
FE3FFFFFFFFFE3F8
FC7FFFFFFFFFF1F8
78FFFFFFFFFFF8F0
31FFFFFFFFFFFC60
03FFFFFFFFFFFE00
07FFFFFFFFFFFF00
07FFFFFFFFFFFF00
03FFFFFFFFFFFE00
01FFFFFFFFFFFC00
ENDCHAR
STARTCHAR p
ENCODING 112
SWIDTH 816 0
DWIDTH 81 0
BBX 61 94 10 5
BITMAP
01FFFFFFFFFFFC00
03FFFFFFFFFFFE00
07FFFFFFFFFFFF00
07FFFFFFFFFFFF00
03FFFFFFFFFFFE00
31FFFFFFFFFFFC60
78FFFFFFFFFFF8F0
FC7FFFFFFFFFF1F8
FE3FFFFFFFFFE3F8
FF1FFFFFFFFFC7F8
FF8FFFFFFFFF8FF8
FFC7FFFFFFFF1FF8
FFE0000000003FF8
FFF0000000007FF8
FFF0000000007FF8
FFF0000000007FF8
FFF0000000007FF8
FFF0000000007FF8
FFF0000000007FF8
FFF0000000007FF8
FFF0000000007FF8
FFF0000000007FF8
FFF0000000007FF8
FFF0000000007FF8
FFF0000000007FF8
FFF0000000007FF8
FFF0000000007FF8
FFF0000000007FF8
FFF0000000007FF8
FFF0000000007FF8
FFF0000000007FF8
FFF0000000007FF8
FFF0000000007FF8
FFF0000000007FF8
FFF0000000007FF8
FFF0000000007FF8
FFF0000000007FF8
FFF0000000007FF8
FFF0000000007FF8
FFF0000000007FF8
FFF0000000007FF8
FFF0000000007FF8
FFF0000000007FF8
FFE7FFFFFFFE3FF8
FFCFFFFFFFFF1FF8
FF9FFFFFFFFF8FF8
FE3FFFFFFFFFC7F8
FC7FFFFFFFFFE3F8
FCFFFFFFFFFFF1F8
01FFFFFFFFFFF800
FCFFFFFFFFFFF000
FC7FFFFFFFFFE000
FE3FFFFFFFFFC000
FF9FFFFFFFFF8000
FFCFFFFFFFFF0000
FFE7FFFFFFFE0000
FFF0000000000000
FFF0000000000000
FFF0000000000000
FFF0000000000000
FFF0000000000000
FFF0000000000000
FFF0000000000000
FFF0000000000000
FFF0000000000000
FFF0000000000000
FFF0000000000000
FFF0000000000000
FFF0000000000000
FFF0000000000000
FFF0000000000000
FFF0000000000000
FFF0000000000000
FFF0000000000000
FFF0000000000000
FFF0000000000000
FFF0000000000000
FFF0000000000000
FFF0000000000000
FFF0000000000000
FFF0000000000000
FFF0000000000000
FFF0000000000000
FFF0000000000000
FFF0000000000000
FFF0000000000000
FFE0000000000000
FFC0000000000000
FF80000000000000
FF00000000000000
FE00000000000000
FC00000000000000
7800000000000000
3000000000000000
ENDCHAR
STARTCHAR q
ENCODING 113
SWIDTH 816 0
DWIDTH 81 0
BBX 61 94 10 5
BITMAP
01FFFFFFFFFFFC00
03FFFFFFFFFFFE00
07FFFFFFFFFFFF00
07FFFFFFFFFFFF00
03FFFFFFFFFFFE00
31FFFFFFFFFFFC60
78FFFFFFFFFFF8F0
FC7FFFFFFFFFF1F8
FE3FFFFFFFFFE3F8
FF1FFFFFFFFFC7F8
FF8FFFFFFFFF8FF8
FFC7FFFFFFFF1FF8
FFE0000000003FF8
FFF0000000007FF8
FFF0000000007FF8
FFF0000000007FF8
FFF0000000007FF8
FFF0000000007FF8
FFF0000000007FF8
FFF0000000007FF8
FFF0000000007FF8
FFF0000000007FF8
FFF0000000007FF8
FFF0000000007FF8
FFF0000000007FF8
FFF0000000007FF8
FFF0000000007FF8
FFF0000000007FF8
FFF0000000007FF8
FFF0000000007FF8
FFF0000000007FF8
FFF0000000007FF8
FFF0000000007FF8
FFF0000000007FF8
FFF0000000007FF8
FFF0000000007FF8
FFF0000000007FF8
FFF0000000007FF8
FFF0000000007FF8
FFF0000000007FF8
FFF0000000007FF8
FFF0000000007FF8
FFF0000000007FF8
FFE7FFFFFFFE3FF8
FFCFFFFFFFFF1FF8
FF9FFFFFFFFF8FF8
FE3FFFFFFFFFC7F8
FC7FFFFFFFFFE3F8
FCFFFFFFFFFFF1F8
01FFFFFFFFFFF800
00FFFFFFFFFFF000
007FFFFFFFFFE3F8
003FFFFFFFFFC7F8
001FFFFFFFFF8FF8
000FFFFFFFFF1FF8
0007FFFFFFFE3FF8
0000000000007FF8
0000000000007FF8
0000000000007FF8
0000000000007FF8
0000000000007FF8
0000000000007FF8
0000000000007FF8
0000000000007FF8
0000000000007FF8
0000000000007FF8
0000000000007FF8
0000000000007FF8
0000000000007FF8
0000000000007FF8
0000000000007FF8
0000000000007FF8
0000000000007FF8
0000000000007FF8
0000000000007FF8
0000000000007FF8
0000000000007FF8
0000000000007FF8
0000000000007FF8
0000000000007FF8
0000000000007FF8
0000000000007FF8
0000000000007FF8
0000000000007FF8
0000000000007FF8
0000000000007FF8
0000000000003FF8
0000000000001FF8
0000000000000FF8
00000000000007F8
00000000000003F8
00000000000001F8
00000000000000F0
0000000000000060
ENDCHAR
STARTCHAR r
ENCODING 114
SWIDTH 816 0
DWIDTH 81 0
BBX 53 51 10 5
BITMAP
0007FFFFFFFE00
000FFFFFFFFF00
001FFFFFFFFF80
003FFFFFFFFFC0
007FFFFFFFFFE0
00FFFFFFFFFFF0
01FFFFFFFFFFF8
FCFFFFFFFFFFF0
FC7FFFFFFFFFE0
FE3FFFFFFFFFC0
FF9FFFFFFFFF80
FFCFFFFFFFFF00
FFE7FFFFFFFE00
FFF00000000000
FFF00000000000
FFF00000000000
FFF00000000000
FFF00000000000
FFF00000000000
FFF00000000000
FFF00000000000
FFF00000000000
FFF00000000000
FFF00000000000
FFF00000000000
FFF00000000000
FFF00000000000
FFF00000000000
FFF00000000000
FFF00000000000
FFF00000000000
FFF00000000000
FFF00000000000
FFF00000000000
FFF00000000000
FFF00000000000
FFF00000000000
FFF00000000000
FFF00000000000
FFF00000000000
FFF00000000000
FFF00000000000
FFF00000000000
FFE00000000000
FFC00000000000
FF800000000000
FF000000000000
FE000000000000
FC000000000000
78000000000000
30000000000000
ENDCHAR
STARTCHAR s
ENCODING 115
SWIDTH 816 0
DWIDTH 81 0
BBX 61 94 10 0
BITMAP
3000000000000000
7800000000000000
FC00000000000000
FE00000000000000
FF00000000000000
FF80000000000000
FFC0000000000000
FFE0000000000000
FFF0000000000000
FFF0000000000000
FFF0000000000000
FFF0000000000000
FFF0000000000000
FFF0000000000000
FFF0000000000000
FFF0000000000000
FFF0000000000000
FFF0000000000000
FFF0000000000000
FFF0000000000000
FFF0000000000000
FFF0000000000000
FFF0000000000000
FFF0000000000000
FFF0000000000000
FFF0000000000000
FFF0000000000000
FFF0000000000000
FFF0000000000000
FFF0000000000000
FFF0000000000000
FFF0000000000000
FFF0000000000000
FFF0000000000000
FFF0000000000000
FFF0000000000000
FFF0000000000000
FFF0000000000000
FFE7FFFFFFFE0000
FFCFFFFFFFFF0000
FF9FFFFFFFFF8000
FE3FFFFFFFFFC000
FC7FFFFFFFFFE000
FCFFFFFFFFFFF000
01FFFFFFFFFFF800
00FFFFFFFFFFF000
007FFFFFFFFFE3F8
003FFFFFFFFFC7F8
001FFFFFFFFF8FF8
000FFFFFFFFF1FF8
0007FFFFFFFE3FF8
0000000000007FF8
0000000000007FF8
0000000000007FF8
0000000000007FF8
0000000000007FF8
0000000000007FF8
0000000000007FF8
0000000000007FF8
0000000000007FF8
0000000000007FF8
0000000000007FF8
0000000000007FF8
0000000000007FF8
0000000000007FF8
0000000000007FF8
0000000000007FF8
0000000000007FF8
0000000000007FF8
0000000000007FF8
0000000000007FF8
0000000000007FF8
0000000000007FF8
0000000000007FF8
0000000000007FF8
0000000000007FF8
0000000000007FF8
0000000000007FF8
0000000000007FF8
0000000000007FF8
0000000000007FF8
0000000000003FF8
0007FFFFFFFF1FF8
000FFFFFFFFF8FF8
001FFFFFFFFFC7F8
003FFFFFFFFFE3F8
007FFFFFFFFFF1F8
00FFFFFFFFFFF8F0
01FFFFFFFFFFFC60
03FFFFFFFFFFFE00
07FFFFFFFFFFFF00
07FFFFFFFFFFFF00
03FFFFFFFFFFFE00
01FFFFFFFFFFFC00
ENDCHAR
STARTCHAR t
ENCODING 116
SWIDTH 816 0
DWIDTH 81 0
BBX 56 94 10 0
BITMAP
30000000000000
78000000000000
FC000000000000
FE000000000000
FF000000000000
FF800000000000
FFC00000000000
FFE00000000000
FFF00000000000
FFF00000000000
FFF00000000000
FFF00000000000
FFF00000000000
FFF00000000000
FFF00000000000
FFF00000000000
FFF00000000000
FFF00000000000
FFF00000000000
FFF00000000000
FFF00000000000
FFF00000000000
FFF00000000000
FFF00000000000
FFF00000000000
FFF00000000000
FFF00000000000
FFF00000000000
FFF00000000000
FFF00000000000
FFF00000000000
FFF00000000000
FFF00000000000
FFF00000000000
FFF00000000000
FFF00000000000
FFF00000000000
FFF00000000000
FFE7FFFFFFFE00
FFCFFFFFFFFF00
FF9FFFFFFFFF80
FE3FFFFFFFFFC0
FC7FFFFFFFFFE0
FCFFFFFFFFFFF0
01FFFFFFFFFFF8
FCFFFFFFFFFFF0
FC7FFFFFFFFFE0
FE3FFFFFFFFFC0
FF9FFFFFFFFF80
FFCFFFFFFFFF00
FFE7FFFFFFFE00
FFF00000000000
FFF00000000000
FFF00000000000
FFF00000000000
FFF00000000000
FFF00000000000
FFF00000000000
FFF00000000000
FFF00000000000
FFF00000000000
FFF00000000000
FFF00000000000
FFF00000000000
FFF00000000000
FFF00000000000
FFF00000000000
FFF00000000000
FFF00000000000
FFF00000000000
FFF00000000000
FFF00000000000
FFF00000000000
FFF00000000000
FFF00000000000
FFF00000000000
FFF00000000000
FFF00000000000
FFF00000000000
FFF00000000000
FFF00000000000
FFE00000000000
FFC7FFFFFFFF00
FF8FFFFFFFFF80
FF1FFFFFFFFFC0
FE3FFFFFFFFFE0
FC7FFFFFFFFFF0
78FFFFFFFFFFF8
31FFFFFFFFFFFC
03FFFFFFFFFFFE
07FFFFFFFFFFFF
07FFFFFFFFFFFF
03FFFFFFFFFFFE
01FFFFFFFFFFFC
ENDCHAR
STARTCHAR u
ENCODING 117
SWIDTH 816 0
DWIDTH 81 0
BBX 61 49 10 0
BITMAP
FC00000000000000
FC000000000003F8
FE000000000007F8
FF80000000000FF8
FFC0000000001FF8
FFE0000000003FF8
FFF0000000007FF8
FFF0000000007FF8
FFF0000000007FF8
FFF0000000007FF8
FFF0000000007FF8
FFF0000000007FF8
FFF0000000007FF8
FFF0000000007FF8
FFF0000000007FF8
FFF0000000007FF8
FFF0000000007FF8
FFF0000000007FF8
FFF0000000007FF8
FFF0000000007FF8
FFF0000000007FF8
FFF0000000007FF8
FFF0000000007FF8
FFF0000000007FF8
FFF0000000007FF8
FFF0000000007FF8
FFF0000000007FF8
FFF0000000007FF8
FFF0000000007FF8
FFF0000000007FF8
FFF0000000007FF8
FFF0000000007FF8
FFF0000000007FF8
FFF0000000007FF8
FFF0000000007FF8
FFF0000000007FF8
FFE0000000003FF8
FFC7FFFFFFFF1FF8
FF8FFFFFFFFF8FF8
FF1FFFFFFFFFC7F8
FE3FFFFFFFFFE3F8
FC7FFFFFFFFFF1F8
78FFFFFFFFFFF8F0
31FFFFFFFFFFFC60
03FFFFFFFFFFFE00
07FFFFFFFFFFFF00
07FFFFFFFFFFFF00
03FFFFFFFFFFFE00
01FFFFFFFFFFFC00
ENDCHAR
STARTCHAR v
ENCODING 118
SWIDTH 816 0
DWIDTH 81 0
BBX 61 94 10 0
BITMAP
3000000000000060
78000000000000F0
FC000000000001F8
FE000000000003F8
FF000000000007F8
FF80000000000FF8
FFC0000000001FF8
FFE0000000003FF8
FFF0000000007FF8
FFF0000000007FF8
FFF0000000007FF8
FFF0000000007FF8
FFF0000000007FF8
FFF0000000007FF8
FFF0000000007FF8
FFF0000000007FF8
FFF0000000007FF8
FFF0000000007FF8
FFF0000000007FF8
FFF0000000007FF8
FFF0000000007FF8
FFF0000000007FF8
FFF0000000007FF8
FFF0000000007FF8
FFF0000000007FF8
FFF0000000007FF8
FFF0000000007FF8
FFF0000000007FF8
FFF0000000007FF8
FFF0000000007FF8
FFF0000000007FF8
FFF0000000007FF8
FFF0000000007FF8
FFF0000000007FF8
FFF0000000007FF8
FFF0000000007FF8
FFF0000000007FF8
FFF0000000007FF8
FFE0000000003FF8
FFC0000000001FF8
FF80000000000FF8
FE000000000007F8
FC000000000003F8
FC000000000001F8
0000000000000000
FC00000000000000
FC000000000003F8
FE000000000007F8
FF80000000000FF8
FFC0000000001FF8
FFE0000000003FF8
FFF0000000007FF8
FFF0000000007FF8
FFF0000000007FF8
FFF0000000007FF8
FFF0000000007FF8
FFF0000000007FF8
FFF0000000007FF8
FFF0000000007FF8
FFF0000000007FF8
FFF0000000007FF8
FFF0000000007FF8
FFF0000000007FF8
FFF0000000007FF8
FFF0000000007FF8
FFF0000000007FF8
FFF0000000007FF8
FFF0000000007FF8
FFF0000000007FF8
FFF0000000007FF8
FFF0000000007FF8
FFF0000000007FF8
FFF0000000007FF8
FFF0000000007FF8
FFF0000000007FF8
FFF0000000007FF8
FFF0000000007FF8
FFF0000000007FF8
FFF0000000007FF8
FFF0000000007FF8
FFF0000000007FF8
FFE0000000003FF8
FFC7FFFFFFFF1FF8
FF8FFFFFFFFF8FF8
FF1FFFFFFFFFC7F8
FE3FFFFFFFFFE3F8
FC7FFFFFFFFFF1F8
78FFFFFFFFFFF8F0
31FFFFFFFFFFFC60
03FFFFFFFFFFFE00
07FFFFFFFFFFFF00
07FFFFFFFFFFFF00
03FFFFFFFFFFFE00
01FFFFFFFFFFFC00
ENDCHAR
STARTCHAR w
ENCODING 119
SWIDTH 816 0
DWIDTH 81 0
BBX 61 94 10 0
BITMAP
3000000000000060
78000000000000F0
FC000000000001F8
FE000000000003F8
FF000000000007F8
FF80000000000FF8
FFC0000000001FF8
FFE0000000003FF8
FFF0000000007FF8
FFF0000000007FF8
FFF0000000007FF8
FFF0000000007FF8
FFF0000000007FF8
FFF0000000007FF8
FFF0000000007FF8
FFF0000000007FF8
FFF0000000007FF8
FFF0000000007FF8
FFF0000000007FF8
FFF0000000007FF8
FFF0000000007FF8
FFF0000000007FF8
FFF0000000007FF8
FFF0000000007FF8
FFF0000000007FF8
FFF0000000007FF8
FFF0000000007FF8
FFF0000000007FF8
FFF0000000007FF8
FFF0000000007FF8
FFF0000000007FF8
FFF0000000007FF8
FFF0000000007FF8
FFF0000000007FF8
FFF0000000007FF8
FFF0000000007FF8
FFF0000000007FF8
FFF0000000007FF8
FFE7FFFFFFFE3FF8
FFCFFFFFFFFF1FF8
FF9FFFFFFFFF8FF8
FE3FFFFFFFFFC7F8
FC7FFFFFFFFFE3F8
FCFFFFFFFFFFF1F8
01FFFFFFFFFFF800
FCFFFFFFFFFFF000
FC7FFFFFFFFFE3F8
FE3FFFFFFFFFC7F8
FF9FFFFFFFFF8FF8
FFCFFFFFFFFF1FF8
FFE7FFFFFFFE3FF8
FFF0000000007FF8
FFF0000000007FF8
FFF0000000007FF8
FFF0000000007FF8
FFF0000000007FF8
FFF0000000007FF8
FFF0000000007FF8
FFF0000000007FF8
FFF0000000007FF8
FFF0000000007FF8
FFF0000000007FF8
FFF0000000007FF8
FFF0000000007FF8
FFF0000000007FF8
FFF0000000007FF8
FFF0000000007FF8
FFF0000000007FF8
FFF0000000007FF8
FFF0000000007FF8
FFF0000000007FF8
FFF0000000007FF8
FFF0000000007FF8
FFF0000000007FF8
FFF0000000007FF8
FFF0000000007FF8
FFF0000000007FF8
FFF0000000007FF8
FFF0000000007FF8
FFF0000000007FF8
FFF0000000007FF8
FFE0000000003FF8
FFC7FFFFFFFF1FF8
FF8FFFFFFFFF8FF8
FF1FFFFFFFFFC7F8
FE3FFFFFFFFFE3F8
FC7FFFFFFFFFF1F8
78FFFFFFFFFFF8F0
31FFFFFFFFFFFC60
03FFFFFFFFFFFE00
07FFFFFFFFFFFF00
07FFFFFFFFFFFF00
03FFFFFFFFFFFE00
01FFFFFFFFFFFC00
ENDCHAR
STARTCHAR x
ENCODING 120
SWIDTH 816 0
DWIDTH 81 0
BBX 61 89 10 5
BITMAP
3000000000000060
78000000000000F0
FC000000000001F8
FE000000000003F8
FF000000000007F8
FF80000000000FF8
FFC0000000001FF8
FFE0000000003FF8
FFF0000000007FF8
FFF0000000007FF8
FFF0000000007FF8
FFF0000000007FF8
FFF0000000007FF8
FFF0000000007FF8
FFF0000000007FF8
FFF0000000007FF8
FFF0000000007FF8
FFF0000000007FF8
FFF0000000007FF8
FFF0000000007FF8
FFF0000000007FF8
FFF0000000007FF8
FFF0000000007FF8
FFF0000000007FF8
FFF0000000007FF8
FFF0000000007FF8
FFF0000000007FF8
FFF0000000007FF8
FFF0000000007FF8
FFF0000000007FF8
FFF0000000007FF8
FFF0000000007FF8
FFF0000000007FF8
FFF0000000007FF8
FFF0000000007FF8
FFF0000000007FF8
FFF0000000007FF8
FFF0000000007FF8
FFE7FFFFFFFE3FF8
FFCFFFFFFFFF1FF8
FF9FFFFFFFFF8FF8
FE3FFFFFFFFFC7F8
FC7FFFFFFFFFE3F8
FCFFFFFFFFFFF1F8
01FFFFFFFFFFF800
FCFFFFFFFFFFF000
FC7FFFFFFFFFE3F8
FE3FFFFFFFFFC7F8
FF9FFFFFFFFF8FF8
FFCFFFFFFFFF1FF8
FFE7FFFFFFFE3FF8
FFF0000000007FF8
FFF0000000007FF8
FFF0000000007FF8
FFF0000000007FF8
FFF0000000007FF8
FFF0000000007FF8
FFF0000000007FF8
FFF0000000007FF8
FFF0000000007FF8
FFF0000000007FF8
FFF0000000007FF8
FFF0000000007FF8
FFF0000000007FF8
FFF0000000007FF8
FFF0000000007FF8
FFF0000000007FF8
FFF0000000007FF8
FFF0000000007FF8
FFF0000000007FF8
FFF0000000007FF8
FFF0000000007FF8
FFF0000000007FF8
FFF0000000007FF8
FFF0000000007FF8
FFF0000000007FF8
FFF0000000007FF8
FFF0000000007FF8
FFF0000000007FF8
FFF0000000007FF8
FFF0000000007FF8
FFE0000000003FF8
FFC0000000001FF8
FF80000000000FF8
FF000000000007F8
FE000000000003F8
FC000000000001F8
78000000000000F0
3000000000000060
ENDCHAR
STARTCHAR y
ENCODING 121
SWIDTH 816 0
DWIDTH 81 0
BBX 61 94 10 0
BITMAP
3000000000000060
78000000000000F0
FC000000000001F8
FE000000000003F8
FF000000000007F8
FF80000000000FF8
FFC0000000001FF8
FFE0000000003FF8
FFF0000000007FF8
FFF0000000007FF8
FFF0000000007FF8
FFF0000000007FF8
FFF0000000007FF8
FFF0000000007FF8
FFF0000000007FF8
FFF0000000007FF8
FFF0000000007FF8
FFF0000000007FF8
FFF0000000007FF8
FFF0000000007FF8
FFF0000000007FF8
FFF0000000007FF8
FFF0000000007FF8
FFF0000000007FF8
FFF0000000007FF8
FFF0000000007FF8
FFF0000000007FF8
FFF0000000007FF8
FFF0000000007FF8
FFF0000000007FF8
FFF0000000007FF8
FFF0000000007FF8
FFF0000000007FF8
FFF0000000007FF8
FFF0000000007FF8
FFF0000000007FF8
FFF0000000007FF8
FFF0000000007FF8
FFE7FFFFFFFE3FF8
FFCFFFFFFFFF1FF8
FF9FFFFFFFFF8FF8
FE3FFFFFFFFFC7F8
FC7FFFFFFFFFE3F8
FCFFFFFFFFFFF1F8
01FFFFFFFFFFF800
00FFFFFFFFFFF000
007FFFFFFFFFE3F8
003FFFFFFFFFC7F8
001FFFFFFFFF8FF8
000FFFFFFFFF1FF8
0007FFFFFFFE3FF8
0000000000007FF8
0000000000007FF8
0000000000007FF8
0000000000007FF8
0000000000007FF8
0000000000007FF8
0000000000007FF8
0000000000007FF8
0000000000007FF8
0000000000007FF8
0000000000007FF8
0000000000007FF8
0000000000007FF8
0000000000007FF8
0000000000007FF8
0000000000007FF8
0000000000007FF8
0000000000007FF8
0000000000007FF8
0000000000007FF8
0000000000007FF8
0000000000007FF8
0000000000007FF8
0000000000007FF8
0000000000007FF8
0000000000007FF8
0000000000007FF8
0000000000007FF8
0000000000007FF8
0000000000007FF8
0000000000003FF8
0007FFFFFFFF1FF8
000FFFFFFFFF8FF8
001FFFFFFFFFC7F8
003FFFFFFFFFE3F8
007FFFFFFFFFF1F8
00FFFFFFFFFFF8F0
01FFFFFFFFFFFC60
03FFFFFFFFFFFE00
07FFFFFFFFFFFF00
07FFFFFFFFFFFF00
03FFFFFFFFFFFE00
01FFFFFFFFFFFC00
ENDCHAR
STARTCHAR z
ENCODING 122
SWIDTH 816 0
DWIDTH 81 0
BBX 61 99 10 0
BITMAP
01FFFFFFFFFFFC00
03FFFFFFFFFFFE00
07FFFFFFFFFFFF00
07FFFFFFFFFFFF00
03FFFFFFFFFFFE00
01FFFFFFFFFFFC60
00FFFFFFFFFFF8F0
007FFFFFFFFFF1F8
003FFFFFFFFFE3F8
001FFFFFFFFFC7F8
000FFFFFFFFF8FF8
0007FFFFFFFF1FF8
0000000000003FF8
0000000000007FF8
0000000000007FF8
0000000000007FF8
0000000000007FF8
0000000000007FF8
0000000000007FF8
0000000000007FF8
0000000000007FF8
0000000000007FF8
0000000000007FF8
0000000000007FF8
0000000000007FF8
0000000000007FF8
0000000000007FF8
0000000000007FF8
0000000000007FF8
0000000000007FF8
0000000000007FF8
0000000000007FF8
0000000000007FF8
0000000000007FF8
0000000000007FF8
0000000000007FF8
0000000000007FF8
0000000000007FF8
0000000000007FF8
0000000000007FF8
0000000000007FF8
0000000000007FF8
0000000000007FF8
0000000000003FF8
0000000000001FF8
0000000000000FF8
00000000000007F8
00000000000003F8
00000000000001F8
0000000000000000
FC00000000000000
FC00000000000000
FE00000000000000
FF80000000000000
FFC0000000000000
FFE0000000000000
FFF0000000000000
FFF0000000000000
FFF0000000000000
FFF0000000000000
FFF0000000000000
FFF0000000000000
FFF0000000000000
FFF0000000000000
FFF0000000000000
FFF0000000000000
FFF0000000000000
FFF0000000000000
FFF0000000000000
FFF0000000000000
FFF0000000000000
FFF0000000000000
FFF0000000000000
FFF0000000000000
FFF0000000000000
FFF0000000000000
FFF0000000000000
FFF0000000000000
FFF0000000000000
FFF0000000000000
FFF0000000000000
FFF0000000000000
FFF0000000000000
FFF0000000000000
FFF0000000000000
FFF0000000000000
FFE0000000000000
FFC7FFFFFFFF0000
FF8FFFFFFFFF8000
FF1FFFFFFFFFC000
FE3FFFFFFFFFE000
FC7FFFFFFFFFF000
78FFFFFFFFFFF800
31FFFFFFFFFFFC00
03FFFFFFFFFFFE00
07FFFFFFFFFFFF00
07FFFFFFFFFFFF00
03FFFFFFFFFFFE00
01FFFFFFFFFFFC00
ENDCHAR
STARTCHAR degree
ENCODING 176
SWIDTH 816 0
DWIDTH 81 0
BBX 61 56 10 43
BITMAP
01FFFFFFFFFFFC00
03FFFFFFFFFFFE00
07FFFFFFFFFFFF00
07FFFFFFFFFFFF00
03FFFFFFFFFFFE00
31FFFFFFFFFFFC60
78FFFFFFFFFFF8F0
FC7FFFFFFFFFF1F8
FE3FFFFFFFFFE3F8
FF1FFFFFFFFFC7F8
FF8FFFFFFFFF8FF8
FFC7FFFFFFFF1FF8
FFE0000000003FF8
FFF0000000007FF8
FFF0000000007FF8
FFF0000000007FF8
FFF0000000007FF8
FFF0000000007FF8
FFF0000000007FF8
FFF0000000007FF8
FFF0000000007FF8
FFF0000000007FF8
FFF0000000007FF8
FFF0000000007FF8
FFF0000000007FF8
FFF0000000007FF8
FFF0000000007FF8
FFF0000000007FF8
FFF0000000007FF8
FFF0000000007FF8
FFF0000000007FF8
FFF0000000007FF8
FFF0000000007FF8
FFF0000000007FF8
FFF0000000007FF8
FFF0000000007FF8
FFF0000000007FF8
FFF0000000007FF8
FFF0000000007FF8
FFF0000000007FF8
FFF0000000007FF8
FFF0000000007FF8
FFF0000000007FF8
FFE7FFFFFFFE3FF8
FFCFFFFFFFFF1FF8
FF9FFFFFFFFF8FF8
FE3FFFFFFFFFC7F8
FC7FFFFFFFFFE3F8
FCFFFFFFFFFFF1F8
01FFFFFFFFFFF800
00FFFFFFFFFFF000
007FFFFFFFFFE000
003FFFFFFFFFC000
001FFFFFFFFF8000
000FFFFFFFFF0000
0007FFFFFFFE0000
ENDCHAR
STARTCHAR .notdef
ENCODING -1
SWIDTH 364 0
DWIDTH 36 0
BBX 26 66 3 0
BITMAP
FFFFFFC0
FFFFFFC0
FFFFFFC0
E00001C0
E00001C0
E00001C0
E00001C0
E00001C0
E00001C0
E00001C0
E00001C0
E00001C0
E00001C0
E00001C0
E00001C0
E00001C0
E00001C0
E00001C0
E00001C0
E00001C0
E00001C0
E00001C0
E00001C0
E00001C0
E00001C0
E00001C0
E00001C0
E00001C0
E00001C0
E00001C0
E00001C0
E00001C0
E00001C0
E00001C0
E00001C0
E00001C0
E00001C0
E00001C0
E00001C0
E00001C0
E00001C0
E00001C0
E00001C0
E00001C0
E00001C0
E00001C0
E00001C0
E00001C0
E00001C0
E00001C0
E00001C0
E00001C0
E00001C0
E00001C0
E00001C0
E00001C0
E00001C0
E00001C0
E00001C0
E00001C0
E00001C0
E00001C0
E00001C0
FFFFFFC0
FFFFFFC0
FFFFFFC0
ENDCHAR
STARTCHAR .null
ENCODING -1
SWIDTH 0 0
DWIDTH 0 0
BBX 1 1 0 0
BITMAP
00
ENDCHAR
STARTCHAR nonmarkingreturn
ENCODING -1
SWIDTH 333 0
DWIDTH 33 0
BBX 1 1 0 0
BITMAP
00
ENDCHAR
ENDFONT
